<svg width="420" height="351" viewBox="0 0 420 351" fill="none" xmlns="http://www.w3.org/2000/svg">
<path d="M355.21 0H44.12C41.7 0 39.32 0.51 37.13 1.47C34.93 2.43 32.91 3.85 31.2 5.66L5.35 32.99C3.64 34.8 2.3 36.94 1.39 39.26C0.48 41.58 0 44.09 0 46.66V283.36C0 302.04 7.16 318.95 18.74 331.19C30.32 343.43 46.32 351 63.99 351H375.06C377.48 351 379.86 350.49 382.05 349.53C384.24 348.57 386.27 347.15 387.98 345.34L413.83 318.01C415.54 316.2 416.88 314.06 417.79 311.74C418.71 309.42 419.18 306.91 419.18 304.34V67.64C419.18 48.96 412.02 32.05 400.44 19.81C388.86 7.57 372.86 0 355.19 0H355.2H355.21Z" fill="#69C0FF"/>
</svg>
