<svg width="421" height="210" viewBox="0 0 421 210" fill="none" xmlns="http://www.w3.org/2000/svg">
<path d="M44.1201 0.5H356.19L357.01 0.505859C374.207 0.735962 389.764 8.19545 401.077 20.1533C412.57 32.3013 419.68 49.0888 419.68 67.6396V163.34C419.68 165.849 419.221 168.296 418.325 170.556L418.324 170.558C417.437 172.82 416.131 174.904 414.467 176.666L388.617 203.996L388.616 203.997C386.952 205.758 384.978 207.139 382.85 208.072C380.722 209.005 378.409 209.5 376.06 209.5H63.9902C46.4677 209.5 30.5961 201.994 19.1035 189.847C7.61058 177.699 0.50009 160.911 0.5 142.36V46.6602C0.5 44.1524 0.968382 41.704 1.85547 39.4424C2.74284 37.1801 4.04932 35.0949 5.71387 33.333L5.71289 33.332L31.5635 6.00391V6.00293C33.2281 4.24104 35.193 2.86125 37.3301 1.92871L37.3311 1.92773C39.4587 0.99511 41.7705 0.5 44.1201 0.5Z" stroke="black"/>
</svg>
