<svg width="147" height="148" viewBox="0 0 147 148" fill="none" xmlns="http://www.w3.org/2000/svg">
<g clip-path="url(#clip0_5586_178)">
<path fill-rule="evenodd" clip-rule="evenodd" d="M52.7932 95.3029C53.7735 95.3297 54.7548 95.3566 55.7381 95.3937C55.6509 95.526 55.5749 95.6707 55.5073 95.8102C55.45 95.9284 55.3957 96.0497 55.3444 96.164L55.3149 96.23C55.2549 96.3635 55.1996 96.4837 55.1455 96.5845L41.6549 119.499L41.6529 119.503C41.1795 120.345 41.0175 121.401 41.2587 122.273C41.3801 122.711 41.6053 123.108 41.951 123.403C42.298 123.7 42.7549 123.883 43.3206 123.91H47.2042C47.4865 123.91 47.7715 123.913 48.0583 123.916H48.0586C49.2135 123.926 50.3985 123.937 51.5598 123.777H51.5889L51.5985 123.776C56.8616 123.269 59.8706 121.508 63.7634 118.285L63.7654 118.283L89.9827 96L89.9906 95.9925C90.6129 95.4028 90.9385 95.2563 91.2964 95.2282C91.4883 95.2132 91.6965 95.2316 91.9826 95.257L91.9827 95.257L91.9864 95.2573C92.2702 95.2825 92.6157 95.3124 93.0592 95.3124H126.29C129.361 95.3124 132.929 95.2711 136.266 94.5774C139.605 93.8834 142.736 92.5317 144.913 89.8938C147.094 87.2351 147.455 84.471 146.785 81.8169C146.119 79.1752 144.434 76.6498 142.54 74.436C133.178 63.4934 122.533 59.6348 108.766 58.9646H85.645L85.4957 58.9646C85.0557 58.9648 84.7517 58.9649 84.5192 58.9499C84.2653 58.9334 84.1162 58.8997 83.9857 58.8377C83.8503 58.7735 83.7206 58.6727 83.5122 58.492C83.4662 58.4521 83.4169 58.4088 83.3633 58.3618L83.3633 58.3618C83.1787 58.1997 82.9449 57.9944 82.6317 57.7399L65.3974 43.9411L65.3955 43.9397L65.3641 43.9151C60.888 40.416 58.6492 38.6658 56.1104 37.8066C53.6667 36.9795 50.9514 36.9802 45.7231 36.9816L45.0668 36.9817L45.064 36.9817C43.8502 36.9985 42.6289 37.2413 41.8889 37.8778C41.5116 38.2022 41.2604 38.6287 41.2046 39.1671C41.1493 39.7 41.2868 40.3238 41.648 41.0464L51.4734 57.929C51.5512 58.0625 51.6154 58.1958 51.6826 58.3355L51.6828 58.3359C51.7128 58.3983 51.7434 58.4619 51.7762 58.5274C51.8213 58.6177 51.8695 58.7092 51.9237 58.7995L38.754 58.8644C38.0309 58.8644 37.3018 58.877 36.5711 58.8896C34.9237 58.9181 33.2674 58.9467 31.6544 58.8314C29.9833 58.7189 28.7923 57.9346 27.7887 56.845C27.0582 56.0519 26.4388 55.1121 25.8077 54.1546C25.5623 53.7823 25.3148 53.4067 25.0587 53.0366L19.7486 45.4197C19.4601 45.0048 19.1628 44.5491 18.8539 44.0754L18.8539 44.0754C18.3193 43.2559 17.7497 42.3826 17.1297 41.5743C16.1457 40.2913 15.0019 39.1235 13.5864 38.5019L13.548 38.485H13.4448C13.3144 38.4358 13.1318 38.3988 12.924 38.3692C12.6871 38.3354 12.3977 38.3087 12.0748 38.2881C11.4285 38.247 10.6378 38.2303 9.84375 38.2345C9.04955 38.2387 8.24918 38.2638 7.58328 38.3069C6.92652 38.3495 6.37778 38.4106 6.10163 38.4933C4.23122 39.0427 3.28429 40.0118 2.9148 41.281C2.55282 42.5243 2.75691 44.0228 3.09062 45.6084L6.64898 61.8241C4.7312 61.9857 2.77303 62.2017 1.36475 63.8449C-0.890646 66.4486 -0.233247 69.5705 1.39345 72.3697C3.02201 75.172 5.65581 77.7203 7.49954 79.2629C17.851 87.9422 30.7797 93.2689 44.1754 94.8099C47.0534 95.1458 49.9186 95.2242 52.7931 95.3029H52.7932ZM48.0955 42.3019C48.0318 42.1914 47.9781 42.0875 47.939 41.9922L47.945 41.992C51.822 41.8755 54.0219 42.243 55.95 43.1869C57.4985 43.945 58.877 45.0751 60.8081 46.6581C61.3014 47.0626 61.8308 47.4965 62.4083 47.9614L75.3295 58.3819C75.451 58.4893 75.6136 58.6029 75.7684 58.711L75.7686 58.7111C75.8185 58.746 75.8676 58.7803 75.9143 58.8137C75.9545 58.8424 75.9929 58.8704 76.0293 58.8978H58.0172C57.974 58.8409 57.9142 58.7528 57.8406 58.6358C57.7373 58.4716 57.6178 58.2687 57.4972 58.0586C57.3716 57.8399 57.242 57.6082 57.1309 57.4096L57.1307 57.4093C57.0328 57.2342 56.9492 57.0848 56.8954 56.9925L48.4483 42.8984C48.4027 42.8079 48.3435 42.7097 48.2837 42.6124L48.2455 42.5503C48.1949 42.4684 48.1441 42.386 48.0955 42.3019ZM12.4645 43.9634L12.4653 43.9647L12.4695 43.9719L21.3231 56.5381L21.3238 56.5392C23.5784 59.8302 25.1974 61.6816 27.1962 62.6963C29.194 63.7105 31.5448 63.8748 35.2145 63.8748H99.672C107.641 63.8748 113.811 63.9677 119.503 65.4179C125.091 66.8421 130.229 69.5788 136.145 74.8492L134.874 75.1037L134.87 75.1043C132.465 75.5051 128.889 75.9331 126.453 75.5709C124.57 75.2833 123.576 74.1251 122.748 72.802C122.564 72.5079 122.389 72.2079 122.215 71.9074L122.214 71.907L122.147 71.7918C121.951 71.454 121.752 71.117 121.542 70.7965C121.122 70.1567 120.648 69.5691 120.022 69.1547C119.448 68.7657 118.686 68.6907 117.998 68.8549C117.31 69.0192 116.661 69.4317 116.328 70.0625L116.327 70.0645C116.004 70.6911 116.119 71.4439 116.353 72.1254C116.577 72.7765 116.926 73.4094 117.188 73.8827L117.231 73.961L117.232 73.9623C118.547 76.3073 120.09 77.9825 121.956 79.0694C123.822 80.1564 125.997 80.646 128.561 80.646C132.54 80.646 136.256 80.0888 140.064 79.0079L140.714 79.9826C142.361 82.9099 142.307 84.9655 141.296 86.4277C140.267 87.9148 138.206 88.8582 135.676 89.4427C131.404 90.4293 125.95 90.3618 122.368 90.3174C121.714 90.3093 121.123 90.302 120.612 90.302H96.0968C96.2564 90.1717 96.4188 90.0474 96.5811 89.9233L96.6406 89.8777C96.9556 89.6365 97.2704 89.3917 97.5373 89.1115C97.8065 88.829 98.0317 88.5061 98.1675 88.1042C98.3022 87.7056 98.3449 87.2415 98.2689 86.6798V86.5468L98.2672 86.5339C98.0542 84.9003 96.8806 83.8876 95.5199 83.207L95.3864 83.14L95.3781 83.1363C95.1054 83.0151 94.7348 82.9449 94.4362 82.8883L94.4356 82.8882C94.3762 82.8769 94.3197 82.8662 94.2674 82.8557L94.248 82.8518H71.6179C68.1269 82.8518 65.8422 82.8889 64.0157 83.8347C62.1783 84.7861 60.8355 86.6369 59.1473 90.148L59.1466 90.1496C59.0685 90.3157 58.8641 90.3939 58.507 90.398C58.339 90.4 58.1605 90.3853 57.9839 90.3691L57.9292 90.3641H57.9292C57.7755 90.3498 57.6205 90.3354 57.4907 90.3354H53.784C45.8248 90.3187 36.764 88.8193 28.3789 85.7207C19.9926 82.6216 12.2954 77.928 7.04792 71.5326L7.04645 71.5308C6.34867 70.6999 5.58208 69.7367 5.25641 68.722V68.5973L5.25165 68.5759C5.13863 68.0671 5.12476 67.5818 5.12306 67.0829C6.27158 67.0854 7.29663 67.0398 8.1721 66.8853C9.09815 66.7219 9.87444 66.4337 10.4551 65.9355C11.632 64.9257 11.9166 63.1401 11.2634 60.1575L7.70735 43.3926C7.85125 43.3904 8.04054 43.3871 8.25976 43.3833C8.73324 43.3751 9.34633 43.3645 9.94312 43.3576C10.4897 43.3514 11.0243 43.3483 11.432 43.3529C11.6363 43.3553 11.8064 43.3595 11.9297 43.3662C11.9916 43.3695 12.0395 43.3734 12.0718 43.3773L12.0779 43.3842C12.0952 43.4041 12.1158 43.43 12.1391 43.4613C12.1855 43.5237 12.2372 43.6001 12.2862 43.6757C12.335 43.7509 12.3799 43.8234 12.4126 43.8772C12.429 43.904 12.4422 43.9261 12.4514 43.9414L12.4618 43.9589L12.4645 43.9634ZM69.5807 87.8288H73.7475L73.7554 87.8622H92.0875L61.506 113.599L61.5046 113.6C58.6603 115.91 57.0322 117.182 55.1842 117.907C53.404 118.606 51.4069 118.803 47.8937 118.891C48.0104 118.711 48.1193 118.527 48.2249 118.344C48.2599 118.283 48.2945 118.223 48.3289 118.163C48.4649 117.925 48.5979 117.693 48.7416 117.471L60.4351 97.6193L60.4369 97.6161C60.6514 97.236 60.9241 96.7234 61.2399 96.1299L61.2401 96.1295C61.801 95.0752 62.4977 93.7658 63.2449 92.4907C63.8256 91.4995 64.4298 90.5421 65.0115 89.7635C65.598 88.9784 66.1448 88.3988 66.6067 88.1369L66.613 88.1333L66.7133 88.0665C67.0169 87.8956 67.5109 87.8286 68.0629 87.812C68.4108 87.8016 68.7518 87.8108 69.0619 87.8191L69.0621 87.8191C69.2478 87.8241 69.4224 87.8288 69.5807 87.8288Z" fill="#008CD3"/>
</g>
<defs>
<clipPath id="clip0_5586_178">
<rect width="147" height="147" fill="white" transform="translate(0 0.27002)"/>
</clipPath>
</defs>
</svg>
