<svg width="148" height="148" viewBox="0 0 148 148" fill="none" xmlns="http://www.w3.org/2000/svg">
<path fill-rule="evenodd" clip-rule="evenodd" d="M66.9522 14.146C65.5552 14.146 64.4307 15.2709 64.4307 16.6682C64.4307 18.0656 65.5552 19.1905 66.9522 19.1905H80.5784C81.9753 19.1905 83.0998 18.0656 83.0998 16.6682C83.0998 15.2709 81.9753 14.146 80.5784 14.146H66.9522ZM31.4336 37.4146C31.4336 28.5671 38.6364 21.3618 47.481 21.3618H101.285C110.129 21.3618 117.332 28.5671 117.332 37.4146V91.2361C117.332 100.084 110.129 107.289 101.285 107.289H47.481C38.6364 107.289 31.4336 100.084 31.4336 91.2361V37.4146ZM47.481 26.3729C41.3969 26.3729 36.4429 31.3284 36.4429 37.4146V91.2361C36.4429 97.3223 41.3969 102.278 47.481 102.278H101.285C107.369 102.278 112.323 97.3223 112.323 91.2361V37.4146C112.323 31.3284 107.369 26.3729 101.285 26.3729H47.481ZM50.1507 83.1831C51.44 81.8934 53.6426 81.9615 54.8638 83.1831L54.8648 83.1841C55.4414 83.795 55.7801 84.6425 55.7801 85.5237C55.7801 86.337 55.4755 87.2183 54.8647 87.8633L54.8628 87.8652L54.8628 87.8652C54.2192 88.4751 53.372 88.8143 52.524 88.8143C51.643 88.8143 50.7951 88.4754 50.1841 87.8642C49.5393 87.2192 49.2344 86.3708 49.2344 85.5237C49.2344 84.6438 49.5389 83.7952 50.1507 83.1831ZM96.3065 88.8148C97.1435 88.806 97.9769 88.4677 98.612 87.8658L98.6121 87.8659L98.614 87.8639C99.2247 87.219 99.5294 86.3377 99.5294 85.5243C99.5294 84.6431 99.1905 83.7949 98.5796 83.1838L98.5791 83.1833C97.3242 81.962 95.1221 81.9613 93.9 83.1838C93.289 83.7949 92.9502 84.6431 92.9502 85.5243C92.9502 86.3731 93.323 87.2546 93.9672 87.8654C94.5704 88.4685 95.4044 88.8064 96.2732 88.8148V88.815H96.3065V88.8148ZM44.3232 44.766C44.3232 38.2905 49.589 33.0229 56.0624 33.0229H92.7664C99.2398 33.0229 104.506 38.2905 104.506 44.766V66.7489C104.506 68.1463 103.381 69.2712 101.984 69.2712H46.8446C45.4477 69.2712 44.3232 68.1463 44.3232 66.7489V44.766ZM56.0624 38.034C52.3495 38.034 49.3327 41.0518 49.3327 44.766V64.2267H99.4628V44.766C99.4628 41.0518 96.446 38.034 92.7331 38.034H56.0624ZM46.5088 114.655C46.9866 114.177 47.6343 113.938 48.2809 113.938C48.9273 113.938 49.5748 114.177 50.0526 114.654C51.0415 115.61 51.0405 117.212 50.0529 118.2L35.024 133.234C34.1031 134.155 32.435 134.189 31.4799 133.234C31.0035 132.757 30.7305 132.144 30.7305 131.461V131.411H30.7644C30.7774 130.749 31.0486 130.153 31.5133 129.689L46.5088 114.655L46.5088 114.655ZM98.8117 113.953C99.4462 113.953 100.081 114.22 100.548 114.688L115.544 129.722C116.479 130.691 116.479 132.228 115.544 133.197C114.609 134.132 113.006 134.132 112.071 133.197L97.075 118.163C96.1065 117.227 96.1065 115.657 97.075 114.688C97.5426 114.187 98.1771 113.953 98.8117 113.953Z" fill="#008CD3"/>
</svg>
