<svg width="148" height="148" viewBox="0 0 148 148" fill="none" xmlns="http://www.w3.org/2000/svg">
<path d="M49.4129 84.3764C43.8302 84.3764 33.3669 83.6341 27.6506 78.4044C25.0431 76.0089 23.6725 72.9723 23.5722 69.3959C23.5722 68.7548 23.8396 68.1138 24.3077 67.6752C24.7757 67.2365 25.4442 67.0341 26.0794 67.1016L50.9172 69.902C52.7224 70.1044 54.327 71.5215 54.7616 73.3097L56.3327 79.8215C56.5667 80.8674 56.3661 81.9471 55.7644 82.7906C55.1627 83.6341 54.1933 84.1739 53.157 84.2414C52.9564 84.2414 51.5524 84.3764 49.4129 84.3764ZM28.5197 71.9601C28.9209 73.141 29.6563 74.1532 30.6592 75.0642C35.6401 79.5853 46.6717 80.0239 51.6861 79.8215L50.3823 74.4231L28.5197 71.9601Z" fill="#008CD3"/>
<path d="M98.5871 84.3764C96.4811 84.3764 95.0436 84.2752 94.843 84.2414C93.7733 84.1402 92.8373 83.6341 92.2356 82.7906C91.6339 81.9471 91.4333 80.8674 91.6673 79.8215L93.205 73.3097C93.6396 71.5215 95.2442 70.1044 97.0494 69.902L121.887 67.1016C122.522 67.0341 123.157 67.2365 123.659 67.6752C124.127 68.1138 124.394 68.7548 124.394 69.3959C124.328 72.9723 122.957 76.0089 120.316 78.4044C114.6 83.6004 104.136 84.3764 98.5537 84.3764H98.5871ZM96.3139 79.7878C99.9577 79.9565 111.925 79.9902 117.341 75.0304C118.344 74.1195 119.046 73.1073 119.447 71.9264L97.6511 74.3894L96.3139 79.7878Z" fill="#008CD3"/>
<path d="M132.284 43.6524H126.701C124.194 43.6524 120.951 44.9682 119.146 46.7227L118.177 47.6674L113.229 39.5361C110.421 34.8463 103.702 31.0337 98.2862 31.0337H50.9841C45.5686 31.0337 38.8493 34.88 36.0413 39.5361L30.2246 48.0386L28.8874 46.7565C27.0823 45.002 23.8396 43.6861 21.3325 43.6861H15.7498C12.574 43.6861 10 46.2841 10 49.4894V54.4154C10 57.6207 12.574 60.2186 15.7498 60.2186H18.491C12.5072 66.3256 12.3735 75.4691 12.3735 79.754V91.9678C12.3735 96.3203 15.1815 99.9979 19.0593 101.348V109.344C19.0593 111.942 21.1653 114.067 23.7394 114.067H33.2332C35.8073 114.067 37.9133 111.942 37.9133 109.344V102.562C47.8752 103.541 60.4111 104.148 74.0167 104.148C87.6223 104.148 100.158 103.541 110.12 102.562V109.344C110.12 111.942 112.226 114.067 114.8 114.067H124.294C126.868 114.067 128.974 111.942 128.974 109.344V101.348C132.852 99.9979 135.66 96.3203 135.66 91.9678V79.754C135.66 75.4691 135.526 66.3256 129.542 60.2186H132.284C135.459 60.2186 138.033 57.6207 138.033 54.4154V49.4894C138.033 46.2841 135.459 43.6861 132.284 43.6861V43.6524ZM39.7185 42.1004C39.7185 42.1004 39.8188 41.9317 39.8522 41.8642C41.8245 38.5577 47.1063 35.5211 50.9506 35.5211H98.2528C102.097 35.5211 107.379 38.5239 109.385 41.8642L117.675 55.5288H30.5255L39.7185 42.0666V42.1004ZM14.4795 54.3817V49.4556C14.4795 48.7471 15.0478 48.2073 15.7164 48.2073H21.299C22.7365 48.2073 24.7422 49.017 25.7451 50.0292L27.6171 51.8174L24.5417 56.3048C23.3048 55.9 22.0345 55.6638 20.9313 55.6638H15.6829C14.9809 55.6638 14.4461 55.0902 14.4461 54.4154L14.4795 54.3817ZM33.4004 109.276C33.4004 109.276 33.3001 109.479 33.1998 109.479H23.7059C23.7059 109.479 23.5054 109.378 23.5054 109.276V101.854H31.9963C32.4309 101.921 32.9324 101.955 33.3669 102.022V109.31L33.4004 109.276ZM124.294 109.479H114.8C114.8 109.479 114.6 109.378 114.6 109.276V101.989C115.068 101.921 115.536 101.887 115.97 101.82H124.461V109.243C124.461 109.243 124.361 109.445 124.261 109.445L124.294 109.479ZM131.047 91.9004C131.047 94.9032 128.74 97.3325 125.765 97.3325H115.937C115.736 97.3325 115.569 97.3325 115.368 97.3662C104.404 98.7833 89.6949 99.593 73.9498 99.593C58.2047 99.593 43.5294 98.817 32.5312 97.3662C32.3306 97.3662 32.1635 97.3325 31.9629 97.3325H22.1348C19.1596 97.3325 16.7527 94.9032 16.7527 91.9004V79.6865C16.7527 72.3987 17.8558 63.5589 26.3134 60.2186C26.4137 60.1849 26.7145 60.1174 26.8148 60.0837H121.018C121.018 60.0837 121.386 60.1849 121.486 60.2186C129.977 63.5926 131.047 72.3987 131.047 79.6865V91.9004ZM133.52 54.3817C133.52 55.0565 132.952 55.63 132.284 55.63H127.035C125.999 55.63 124.194 55.9674 123.391 56.2711L120.55 51.5813L122.221 49.9617C123.191 49.017 125.364 48.1398 126.668 48.1398H132.25C132.952 48.1398 133.487 48.7134 133.487 49.3882V54.3142L133.52 54.3817Z" fill="#008CD3"/>
<path d="M27.6506 78.4044L27.4983 78.5701L27.4987 78.5704L27.6506 78.4044ZM23.5722 69.3959H23.3471L23.3473 69.4022L23.5722 69.3959ZM26.0794 67.1016L26.1046 66.878L26.1032 66.8778L26.0794 67.1016ZM50.9172 69.902L50.892 70.1256L50.8921 70.1256L50.9172 69.902ZM54.7616 73.3097L54.9803 73.2569L54.9802 73.2566L54.7616 73.3097ZM56.3327 79.8215L56.5523 79.7724L56.5514 79.7687L56.3327 79.8215ZM53.157 84.2414V84.4664H53.1643L53.1716 84.4659L53.157 84.2414ZM28.5197 71.9601L28.5449 71.7365L28.1927 71.6968L28.3067 72.0325L28.5197 71.9601ZM30.6592 75.0642L30.5079 75.2307L30.508 75.2308L30.6592 75.0642ZM51.6861 79.8215L51.6952 80.0463L51.9692 80.0352L51.9048 79.7687L51.6861 79.8215ZM50.3823 74.4231L50.6011 74.3703L50.5641 74.2172L50.4075 74.1995L50.3823 74.4231ZM94.843 84.2414L94.8804 84.0195L94.8723 84.0182L94.8642 84.0174L94.843 84.2414ZM91.6673 79.8215L91.4483 79.7698L91.4477 79.7724L91.6673 79.8215ZM93.205 73.3097L92.9864 73.2566L92.986 73.258L93.205 73.3097ZM97.0494 69.902L97.0744 70.1256L97.0746 70.1256L97.0494 69.902ZM121.887 67.1016L121.863 66.8778L121.862 66.878L121.887 67.1016ZM123.659 67.6752L123.813 67.5109L123.807 67.5058L123.659 67.6752ZM124.394 69.3959L124.619 69.4001V69.3959H124.394ZM120.316 78.4044L120.165 78.2378L120.165 78.2379L120.316 78.4044ZM96.3139 79.7878L96.0955 79.7337L96.0296 79.9998L96.3035 80.0125L96.3139 79.7878ZM117.341 75.0304L117.19 74.8639L117.189 74.8645L117.341 75.0304ZM119.447 71.9264L119.66 71.9987L119.774 71.663L119.422 71.7028L119.447 71.9264ZM97.6511 74.3894L97.6258 74.1658L97.4703 74.1834L97.4327 74.3353L97.6511 74.3894ZM132.284 43.6524H132.509V43.4274H132.284V43.6524ZM119.146 46.7227L118.989 46.5614L118.989 46.5616L119.146 46.7227ZM118.177 47.6674L117.984 47.7844L118.131 48.0258L118.334 47.8286L118.177 47.6674ZM113.229 39.5361L113.036 39.6517L113.037 39.6531L113.229 39.5361ZM36.0413 39.5361L36.2273 39.6634L36.2339 39.6523L36.0413 39.5361ZM30.2246 48.0386L30.0689 48.201L30.2604 48.3847L30.4103 48.1656L30.2246 48.0386ZM28.8874 46.7565L28.7306 46.9178L28.7317 46.9189L28.8874 46.7565ZM18.491 60.2186L18.6517 60.3761L19.0265 59.9936H18.491V60.2186ZM19.0593 101.348H19.2843V101.188L19.1332 101.135L19.0593 101.348ZM37.9133 102.562L37.9353 102.338L37.6883 102.314V102.562H37.9133ZM110.12 102.562H110.345V102.314L110.098 102.338L110.12 102.562ZM128.974 101.348L128.9 101.135L128.749 101.188V101.348H128.974ZM129.542 60.2186V59.9936H129.007L129.382 60.3761L129.542 60.2186ZM132.284 43.6861H132.059V43.9111H132.284V43.6861ZM39.7185 42.1004H39.4935V42.9192L39.9119 42.2153L39.7185 42.1004ZM39.8522 41.8642L39.6589 41.7489L39.6545 41.7564L39.6506 41.7643L39.8522 41.8642ZM109.385 41.8642L109.192 41.98L109.192 41.9809L109.385 41.8642ZM117.675 55.5288V55.7538H118.075L117.867 55.4121L117.675 55.5288ZM30.5255 55.5288L30.3397 55.4019L30.0994 55.7538H30.5255V55.5288ZM39.7185 42.0666H39.9435V41.3381L39.5327 41.9397L39.7185 42.0666ZM14.4795 54.3817L14.6393 54.54L14.7045 54.4742V54.3817H14.4795ZM25.7451 50.0292L25.5852 50.1876L25.5897 50.1919L25.7451 50.0292ZM27.6171 51.8174L27.8027 51.9446L27.9109 51.7869L27.7725 51.6547L27.6171 51.8174ZM24.5417 56.3048L24.4717 56.5187L24.6319 56.5711L24.7272 56.432L24.5417 56.3048ZM14.4461 54.4154L14.2862 54.257L14.2211 54.3228V54.4154H14.4461ZM33.4004 109.276L33.602 109.376L33.2406 109.118L33.4004 109.276ZM23.7059 109.479L23.6046 109.68L23.6524 109.704H23.7059V109.479ZM23.5054 101.854V101.629H23.2804V101.854H23.5054ZM31.9963 101.854L32.0309 101.631L32.0137 101.629H31.9963V101.854ZM33.3669 102.022H33.5919V101.83L33.4015 101.8L33.3669 102.022ZM33.3669 109.31H33.1419V109.857L33.5267 109.468L33.3669 109.31ZM124.294 109.479V109.704H124.834L124.454 109.32L124.294 109.479ZM114.8 109.479L114.699 109.68L114.747 109.704H114.8V109.479ZM114.6 101.989L114.568 101.766L114.375 101.794V101.989H114.6ZM115.97 101.82V101.595H115.953L115.936 101.598L115.97 101.82ZM124.461 101.82H124.686V101.595H124.461V101.82ZM124.461 109.243L124.663 109.343L124.686 109.295V109.243H124.461ZM124.261 109.445V109.22H123.721L124.101 109.603L124.261 109.445ZM115.368 97.3662L115.397 97.5895L115.406 97.5881L115.368 97.3662ZM32.5312 97.3662L32.5606 97.1431L32.546 97.1412H32.5312V97.3662ZM26.3134 60.2186L26.2416 60.0051L26.2307 60.0094L26.3134 60.2186ZM26.8148 60.0837V59.8587H26.778L26.7431 59.8704L26.8148 60.0837ZM121.018 60.0837L121.078 59.8668L121.048 59.8587H121.018V60.0837ZM121.486 60.2186L121.569 60.0093L121.558 60.0054L121.486 60.2186ZM133.52 54.3817H133.745V54.329L133.722 54.2818L133.52 54.3817ZM123.391 56.2711L123.199 56.3877L123.296 56.5478L123.471 56.4815L123.391 56.2711ZM120.55 51.5813L120.393 51.4197L120.265 51.5445L120.358 51.6978L120.55 51.5813ZM122.221 49.9617L122.378 50.1233L122.378 50.1229L122.221 49.9617ZM133.487 54.3142H133.262V54.3669L133.285 54.4141L133.487 54.3142ZM49.4129 84.1514C46.6299 84.1514 42.6352 83.9662 38.6278 83.1313C34.6162 82.2954 30.6173 80.8136 27.8024 78.2384L27.4987 78.5704C30.4002 81.2249 34.4911 82.729 38.536 83.5718C42.5849 84.4154 46.6133 84.6014 49.4129 84.6014V84.1514ZM27.8028 78.2387C25.2408 75.885 23.8957 72.9062 23.7971 69.3896L23.3473 69.4022C23.4493 73.0384 24.8454 76.1328 27.4983 78.5701L27.8028 78.2387ZM23.7972 69.3959C23.7972 68.8146 24.0406 68.2338 24.4615 67.8393L24.1538 67.511C23.6387 67.9938 23.3472 68.695 23.3472 69.3959H23.7972ZM24.4615 67.8393C24.8781 67.4489 25.4803 67.2642 26.0556 67.3253L26.1032 66.8778C25.4082 66.804 24.6732 67.0241 24.1538 67.511L24.4615 67.8393ZM26.0542 67.3252L50.892 70.1256L50.9424 69.6784L26.1046 66.878L26.0542 67.3252ZM50.8921 70.1256C52.6024 70.3174 54.1304 71.6655 54.5429 73.3628L54.9802 73.2566C54.5235 71.3775 52.8424 69.8915 50.9423 69.6784L50.8921 70.1256ZM54.5428 73.3625L56.114 79.8743L56.5514 79.7687L54.9803 73.2569L54.5428 73.3625ZM56.1132 79.8706C56.3341 80.8581 56.1436 81.8717 55.5813 82.6599L55.9476 82.9213C56.5887 82.0225 56.7994 80.8768 56.5523 79.7724L56.1132 79.8706ZM55.5813 82.6599C55.0188 83.4484 54.1113 83.9538 53.1423 84.0169L53.1716 84.4659C54.2752 84.3941 55.3066 83.8198 55.9476 82.9213L55.5813 82.6599ZM53.157 84.0164C53.0972 84.0164 52.9602 84.0258 52.7735 84.038C52.5805 84.0506 52.3205 84.0674 52.0002 84.0842C51.3597 84.1178 50.4779 84.1514 49.4129 84.1514V84.6014C50.4874 84.6014 51.3773 84.5675 52.0238 84.5336C52.347 84.5166 52.6094 84.4997 52.8029 84.487C53.0027 84.4739 53.1165 84.4664 53.157 84.4664V84.0164ZM28.3067 72.0325C28.7228 73.2576 29.4839 74.3005 30.5079 75.2307L30.8105 74.8976C29.8287 74.0059 29.1189 73.0244 28.7328 71.8877L28.3067 72.0325ZM30.508 75.2308C33.0488 77.5371 37.107 78.7852 41.1241 79.4363C45.1503 80.0888 49.1775 80.148 51.6952 80.0463L51.677 79.5967C49.1803 79.6975 45.1845 79.6385 41.1961 78.9921C37.1985 78.3442 33.2505 77.1124 30.8104 74.8976L30.508 75.2308ZM51.9048 79.7687L50.6011 74.3703L50.1636 74.4759L51.4674 79.8743L51.9048 79.7687ZM50.4075 74.1995L28.5449 71.7365L28.4945 72.1837L50.3572 74.6467L50.4075 74.1995ZM98.5871 84.1514C96.4796 84.1514 95.0599 84.0497 94.8804 84.0195L94.8057 84.4633C95.0273 84.5006 96.4825 84.6014 98.5871 84.6014V84.1514ZM94.8642 84.0174C93.8534 83.9218 92.9792 83.4455 92.4187 82.6599L92.0524 82.9213C92.6954 83.8227 93.6932 84.3586 94.8218 84.4654L94.8642 84.0174ZM92.4187 82.6599C91.8564 81.8717 91.6659 80.8581 91.8868 79.8706L91.4477 79.7724C91.2006 80.8768 91.4113 82.0225 92.0524 82.9213L92.4187 82.6599ZM91.8863 79.8732L93.424 73.3614L92.986 73.258L91.4483 79.7698L91.8863 79.8732ZM93.4236 73.3628C93.8361 71.6655 95.3642 70.3174 97.0744 70.1256L97.0243 69.6784C95.1242 69.8915 93.443 71.3775 92.9864 73.2566L93.4236 73.3628ZM97.0746 70.1256L121.912 67.3252L121.862 66.878L97.0242 69.6784L97.0746 70.1256ZM121.911 67.3253C122.482 67.2647 123.055 67.446 123.511 67.8445L123.807 67.5058C123.26 67.0271 122.563 66.8035 121.863 66.8778L121.911 67.3253ZM123.505 67.8393C123.926 68.2338 124.169 68.8146 124.169 69.3959H124.619C124.619 68.695 124.328 67.9938 123.813 67.511L123.505 67.8393ZM124.169 69.3917C124.104 72.9066 122.759 75.8842 120.165 78.2378L120.467 78.5711C123.154 76.1335 124.551 73.038 124.619 69.4001L124.169 69.3917ZM120.165 78.2379C117.35 80.7967 113.35 82.2786 109.339 83.1186C105.331 83.9578 101.336 84.1514 98.5537 84.1514V84.6014C101.354 84.6014 105.382 84.4069 109.431 83.5591C113.475 82.7122 117.566 81.2081 120.467 78.5709L120.165 78.2379ZM98.5537 84.6014H98.5871V84.1514H98.5537V84.6014ZM96.3035 80.0125C98.1334 80.0972 102.052 80.1482 106.195 79.555C110.328 78.9633 114.732 77.7245 117.493 75.1964L117.189 74.8645C114.534 77.2961 110.246 78.5204 106.131 79.1095C102.026 79.6973 98.1382 79.647 96.3243 79.563L96.3035 80.0125ZM117.492 75.197C118.519 74.2643 119.245 73.2209 119.66 71.9987L119.234 71.854C118.847 72.9936 118.169 73.9746 117.19 74.8639L117.492 75.197ZM119.422 71.7028L97.6258 74.1658L97.6764 74.613L119.472 72.1499L119.422 71.7028ZM97.4327 74.3353L96.0955 79.7337L96.5323 79.8419L97.8695 74.4435L97.4327 74.3353ZM132.284 43.4274H126.701V43.8774H132.284V43.4274ZM126.701 43.4274C125.412 43.4274 123.945 43.7649 122.576 44.3212C121.206 44.8775 119.917 45.6592 118.989 46.5614L119.303 46.8841C120.18 46.0318 121.415 45.2783 122.745 44.7381C124.075 44.1978 125.483 43.8774 126.701 43.8774V43.4274ZM118.989 46.5616L118.02 47.5063L118.334 47.8286L119.303 46.8839L118.989 46.5616ZM118.369 47.5505L113.421 39.4192L113.037 39.6531L117.984 47.7844L118.369 47.5505ZM113.422 39.4205C111.993 37.0343 109.579 34.8839 106.847 33.3306C104.114 31.7774 101.043 30.8087 98.2862 30.8087V31.2587C100.945 31.2587 103.941 32.1963 106.624 33.7218C109.307 35.2473 111.657 37.3481 113.036 39.6517L113.422 39.4205ZM98.2862 30.8087H50.9841V31.2587H98.2862V30.8087ZM50.9841 30.8087C48.2273 30.8087 45.1553 31.786 42.4234 33.3434C39.6914 34.9008 37.2773 37.051 35.8486 39.4199L36.2339 39.6523C37.6133 37.3652 39.9628 35.2641 42.6463 33.7343C45.3299 32.2045 48.3253 31.2587 50.9841 31.2587V30.8087ZM35.8556 39.4091L30.0389 47.9115L30.4103 48.1656L36.227 39.6632L35.8556 39.4091ZM30.3803 47.8762L29.0432 46.594L28.7317 46.9189L30.0689 48.201L30.3803 47.8762ZM29.0443 46.5951C28.116 45.6929 26.8274 44.9112 25.4579 44.3549C24.0884 43.7986 22.6219 43.4611 21.3325 43.4611V43.9111C22.5502 43.9111 23.9586 44.2316 25.2885 44.7718C26.6185 45.3121 27.8537 46.0655 28.7306 46.9178L29.0443 46.5951ZM21.3325 43.4611H15.7498V43.9111H21.3325V43.4611ZM15.7498 43.4611C12.4478 43.4611 9.775 46.1618 9.775 49.4894H10.225C10.225 46.4064 12.7003 43.9111 15.7498 43.9111V43.4611ZM9.775 49.4894V54.4154H10.225V49.4894H9.775ZM9.775 54.4154C9.775 57.743 12.4478 60.4436 15.7498 60.4436V59.9936C12.7003 59.9936 10.225 57.4984 10.225 54.4154H9.775ZM15.7498 60.4436H18.491V59.9936H15.7498V60.4436ZM18.3303 60.0612C12.2745 66.2415 12.1485 75.4778 12.1485 79.754H12.5985C12.5985 75.4603 12.7398 66.4096 18.6517 60.3761L18.3303 60.0612ZM12.1485 79.754V91.9678H12.5985V79.754H12.1485ZM12.1485 91.9678C12.1485 96.42 15.0209 100.18 18.9853 101.56L19.1332 101.135C15.3421 99.8156 12.5985 96.2206 12.5985 91.9678H12.1485ZM18.8343 101.348V109.344H19.2843V101.348H18.8343ZM18.8343 109.344C18.8343 112.064 21.0391 114.292 23.7394 114.292V113.842C21.2915 113.842 19.2843 111.82 19.2843 109.344H18.8343ZM23.7394 114.292H33.2332V113.842H23.7394V114.292ZM33.2332 114.292C35.9335 114.292 38.1383 112.064 38.1383 109.344H37.6883C37.6883 111.82 35.681 113.842 33.2332 113.842V114.292ZM38.1383 109.344V102.562H37.6883V109.344H38.1383ZM37.8913 102.786C47.8616 103.765 60.4049 104.373 74.0167 104.373V103.923C60.4172 103.923 47.8887 103.316 37.9353 102.338L37.8913 102.786ZM74.0167 104.373C87.6285 104.373 100.172 103.765 110.142 102.786L110.098 102.338C100.145 103.316 87.6162 103.923 74.0167 103.923V104.373ZM109.895 102.562V109.344H110.345V102.562H109.895ZM109.895 109.344C109.895 112.064 112.1 114.292 114.8 114.292V113.842C112.352 113.842 110.345 111.82 110.345 109.344H109.895ZM114.8 114.292H124.294V113.842H114.8V114.292ZM124.294 114.292C126.994 114.292 129.199 112.064 129.199 109.344H128.749C128.749 111.82 126.742 113.842 124.294 113.842V114.292ZM129.199 109.344V101.348H128.749V109.344H129.199ZM129.048 101.56C133.013 100.18 135.885 96.42 135.885 91.9678H135.435C135.435 96.2206 132.691 99.8156 128.9 101.135L129.048 101.56ZM135.885 91.9678V79.754H135.435V91.9678H135.885ZM135.885 79.754C135.885 75.4778 135.759 66.2415 129.703 60.0612L129.382 60.3761C135.294 66.4096 135.435 75.4603 135.435 79.754H135.885ZM129.542 60.4436H132.284V59.9936H129.542V60.4436ZM132.284 60.4436C135.586 60.4436 138.258 57.743 138.258 54.4154H137.808C137.808 57.4984 135.333 59.9936 132.284 59.9936V60.4436ZM138.258 54.4154V49.4894H137.808V54.4154H138.258ZM138.258 49.4894C138.258 46.1618 135.586 43.4611 132.284 43.4611V43.9111C135.333 43.9111 137.808 46.4064 137.808 49.4894H138.258ZM132.509 43.6861V43.6524H132.059V43.6861H132.509ZM39.7185 42.1004C39.9119 42.2153 39.9119 42.2153 39.9119 42.2153C39.9119 42.2153 39.9119 42.2153 39.9119 42.2153C39.9119 42.2153 39.9119 42.2153 39.9119 42.2153C39.9119 42.2153 39.9119 42.2152 39.912 42.2152C39.912 42.2151 39.9121 42.2149 39.9122 42.2148C39.9124 42.2144 39.9127 42.2139 39.9131 42.2132C39.9139 42.2119 39.915 42.21 39.9165 42.2076C39.9194 42.2027 39.9235 42.1956 39.9286 42.187C39.9387 42.1698 39.9526 42.1461 39.9676 42.1202C39.9961 42.0708 40.0333 42.0054 40.0538 41.9641L39.6506 41.7643C39.6376 41.7904 39.6079 41.8432 39.578 41.895C39.5637 41.9197 39.5504 41.9423 39.5407 41.9589C39.5359 41.9671 39.5319 41.9738 39.5292 41.9784C39.5278 41.9807 39.5268 41.9825 39.5261 41.9837C39.5257 41.9843 39.5255 41.9847 39.5253 41.985C39.5252 41.9851 39.5251 41.9852 39.5251 41.9853C39.5251 41.9853 39.5251 41.9854 39.5251 41.9854C39.5251 41.9854 39.5251 41.9854 39.5251 41.9854C39.5251 41.9854 39.5251 41.9854 39.5251 41.9854C39.5251 41.9854 39.5251 41.9854 39.7185 42.1004ZM40.0454 41.9794C41.0054 40.37 42.7846 38.8084 44.8112 37.6479C46.838 36.4874 49.0806 35.7461 50.9506 35.7461V35.2961C48.9763 35.2961 46.6559 36.0731 44.5876 37.2574C42.5192 38.4419 40.6712 40.0518 39.6589 41.7489L40.0454 41.9794ZM50.9506 35.7461H98.2528V35.2961H50.9506V35.7461ZM98.2528 35.7461C100.123 35.7461 102.366 36.4793 104.397 37.6356C106.427 38.7917 108.215 40.3534 109.192 41.98L109.578 41.7483C108.549 40.0347 106.692 38.4248 104.62 37.2445C102.547 36.0643 100.227 35.2961 98.2528 35.2961V35.7461ZM109.192 41.9809L117.483 55.6455L117.867 55.4121L109.577 41.7475L109.192 41.9809ZM117.675 55.3038H30.5255V55.7538H117.675V55.3038ZM30.7113 55.6557L39.9043 42.1935L39.5327 41.9397L30.3397 55.4019L30.7113 55.6557ZM39.4935 42.0666V42.1004H39.9435V42.0666H39.4935ZM14.7045 54.3817V49.4556H14.2545V54.3817H14.7045ZM14.7045 49.4556C14.7045 48.8734 15.17 48.4323 15.7164 48.4323V47.9823C14.9255 47.9823 14.2545 48.6208 14.2545 49.4556H14.7045ZM15.7164 48.4323H21.299V47.9823H15.7164V48.4323ZM21.299 48.4323C21.9805 48.4323 22.8119 48.6255 23.6001 48.947C24.3886 49.2687 25.1117 49.7096 25.5853 50.1876L25.9049 49.8709C25.3756 49.3366 24.5944 48.8666 23.77 48.5303C22.9453 48.1939 22.055 47.9823 21.299 47.9823V48.4323ZM25.5897 50.1919L27.4617 51.9801L27.7725 51.6547L25.9005 49.8665L25.5897 50.1919ZM27.4315 51.6902L24.3561 56.1776L24.7272 56.432L27.8027 51.9446L27.4315 51.6902ZM24.6117 56.091C23.3582 55.6807 22.0639 55.4388 20.9313 55.4388V55.8888C22.0051 55.8888 23.2513 56.1192 24.4717 56.5187L24.6117 56.091ZM20.9313 55.4388H15.6829V55.8888H20.9313V55.4388ZM15.6829 55.4388C15.1111 55.4388 14.6711 54.9719 14.6711 54.4154H14.2211C14.2211 55.2085 14.8508 55.8888 15.6829 55.8888V55.4388ZM14.6059 54.5738L14.6393 54.54L14.3197 54.2233L14.2862 54.257L14.6059 54.5738ZM33.4004 109.276C33.1987 109.176 33.1988 109.176 33.1988 109.176C33.1988 109.176 33.1988 109.176 33.1988 109.176C33.1988 109.176 33.1989 109.176 33.1989 109.176C33.1989 109.176 33.199 109.176 33.199 109.176C33.199 109.176 33.1991 109.176 33.1991 109.176C33.1991 109.176 33.1991 109.176 33.1989 109.176C33.1986 109.177 33.198 109.178 33.1971 109.18C33.1953 109.183 33.1923 109.189 33.1883 109.195C33.1801 109.21 33.1692 109.227 33.1571 109.243C33.144 109.261 33.135 109.27 33.1321 109.272C33.126 109.277 33.1504 109.254 33.1998 109.254V109.704C33.2993 109.704 33.3739 109.655 33.4148 109.622C33.4589 109.587 33.4938 109.545 33.5183 109.512C33.5438 109.477 33.5642 109.444 33.5779 109.421C33.5849 109.408 33.5906 109.398 33.5946 109.391C33.5966 109.387 33.5983 109.384 33.5995 109.381C33.6001 109.38 33.6006 109.379 33.601 109.378C33.6013 109.378 33.6014 109.377 33.6016 109.377C33.6017 109.377 33.6017 109.377 33.6018 109.377C33.6018 109.377 33.6019 109.376 33.6019 109.376C33.6019 109.376 33.6019 109.376 33.6019 109.376C33.602 109.376 33.602 109.376 33.4004 109.276ZM33.1998 109.254H23.7059V109.704H33.1998V109.254ZM23.7059 109.479C23.8073 109.278 23.8073 109.278 23.8074 109.278C23.8074 109.278 23.8074 109.278 23.8074 109.278C23.8075 109.278 23.8075 109.278 23.8076 109.278C23.8077 109.278 23.8077 109.278 23.8078 109.278C23.8079 109.278 23.808 109.278 23.808 109.278C23.8081 109.278 23.808 109.278 23.8077 109.278C23.8072 109.278 23.806 109.277 23.8043 109.276C23.8009 109.274 23.7955 109.271 23.7887 109.268C23.7748 109.259 23.7575 109.248 23.7414 109.236C23.7241 109.223 23.7154 109.214 23.713 109.211C23.7082 109.205 23.7304 109.229 23.7304 109.276H23.2804C23.2804 109.375 23.3275 109.449 23.3604 109.49C23.3956 109.535 23.437 109.57 23.4698 109.595C23.5039 109.621 23.5368 109.641 23.5604 109.655C23.5725 109.662 23.5827 109.668 23.5903 109.672C23.5941 109.674 23.5972 109.676 23.5996 109.677C23.6008 109.678 23.6019 109.678 23.6027 109.679C23.6031 109.679 23.6035 109.679 23.6038 109.679C23.6039 109.679 23.6041 109.679 23.6042 109.68C23.6043 109.68 23.6043 109.68 23.6044 109.68C23.6044 109.68 23.6045 109.68 23.6045 109.68C23.6045 109.68 23.6046 109.68 23.7059 109.479ZM23.7304 109.276V101.854H23.2804V109.276H23.7304ZM23.5054 102.079H31.9963V101.629H23.5054V102.079ZM31.9618 102.076C32.1852 102.111 32.4246 102.136 32.6574 102.162C32.8926 102.187 33.1212 102.212 33.3324 102.245L33.4015 101.8C33.1781 101.765 32.9387 101.739 32.7058 101.714C32.4707 101.689 32.2421 101.664 32.0309 101.631L31.9618 102.076ZM33.1419 102.022V109.31H33.5919V102.022H33.1419ZM33.5267 109.468L33.5602 109.435L33.2406 109.118L33.2071 109.152L33.5267 109.468ZM124.294 109.254H114.8V109.704H124.294V109.254ZM114.8 109.479C114.902 109.278 114.902 109.278 114.902 109.278C114.902 109.278 114.902 109.278 114.902 109.278C114.902 109.278 114.902 109.278 114.902 109.278C114.902 109.278 114.902 109.278 114.902 109.278C114.902 109.278 114.902 109.278 114.902 109.278C114.902 109.278 114.902 109.278 114.902 109.278C114.901 109.278 114.9 109.277 114.899 109.276C114.895 109.274 114.89 109.271 114.883 109.268C114.869 109.259 114.852 109.248 114.836 109.236C114.818 109.223 114.81 109.214 114.807 109.211C114.803 109.205 114.825 109.229 114.825 109.276H114.375C114.375 109.375 114.422 109.449 114.455 109.49C114.49 109.535 114.531 109.57 114.564 109.595C114.598 109.621 114.631 109.641 114.655 109.655C114.667 109.662 114.677 109.668 114.685 109.672C114.688 109.674 114.692 109.676 114.694 109.677C114.695 109.678 114.696 109.678 114.697 109.679C114.697 109.679 114.698 109.679 114.698 109.679C114.698 109.679 114.698 109.679 114.698 109.68C114.699 109.68 114.699 109.68 114.699 109.68C114.699 109.68 114.699 109.68 114.699 109.68C114.699 109.68 114.699 109.68 114.8 109.479ZM114.825 109.276V101.989H114.375V109.276H114.825ZM114.632 102.211C114.861 102.178 115.091 102.153 115.322 102.128C115.551 102.103 115.782 102.077 116.005 102.042L115.936 101.598C115.724 101.63 115.503 101.655 115.273 101.681C115.044 101.706 114.806 101.731 114.568 101.766L114.632 102.211ZM115.97 102.045H124.461V101.595H115.97V102.045ZM124.236 101.82V109.243H124.686V101.82H124.236ZM124.461 109.243C124.26 109.143 124.26 109.143 124.26 109.143C124.26 109.143 124.26 109.143 124.26 109.143C124.26 109.143 124.26 109.143 124.26 109.142C124.26 109.142 124.26 109.142 124.26 109.142C124.26 109.142 124.26 109.142 124.26 109.142C124.26 109.142 124.26 109.142 124.26 109.142C124.259 109.143 124.259 109.144 124.258 109.146C124.256 109.149 124.253 109.155 124.249 109.162C124.241 109.176 124.23 109.193 124.218 109.21C124.205 109.227 124.196 109.236 124.193 109.238C124.187 109.243 124.211 109.22 124.261 109.22V109.67C124.36 109.67 124.435 109.622 124.476 109.588C124.52 109.553 124.555 109.511 124.579 109.478C124.605 109.444 124.625 109.411 124.639 109.387C124.646 109.375 124.651 109.364 124.655 109.357C124.657 109.353 124.659 109.35 124.66 109.347C124.661 109.346 124.661 109.345 124.662 109.344C124.662 109.344 124.662 109.344 124.662 109.343C124.663 109.343 124.663 109.343 124.663 109.343C124.663 109.343 124.663 109.343 124.663 109.343C124.663 109.343 124.663 109.343 124.663 109.343C124.663 109.343 124.663 109.343 124.461 109.243ZM124.101 109.603L124.134 109.637L124.454 109.32L124.42 109.287L124.101 109.603ZM130.822 91.9004C130.822 94.7865 128.608 97.1075 125.765 97.1075V97.5575C128.872 97.5575 131.272 95.0199 131.272 91.9004H130.822ZM125.765 97.1075H115.937V97.5575H125.765V97.1075ZM115.937 97.1075C115.738 97.1075 115.553 97.1071 115.331 97.1443L115.406 97.5881C115.585 97.5579 115.735 97.5575 115.937 97.5575V97.1075ZM115.34 97.1431C104.387 98.5585 89.6886 99.368 73.9498 99.368V99.818C89.7013 99.818 104.42 99.008 115.397 97.5894L115.34 97.1431ZM73.9498 99.368C58.2106 99.368 43.5458 98.5922 32.5606 97.1431L32.5018 97.5893C43.513 99.0418 58.1989 99.818 73.9498 99.818V99.368ZM32.5312 97.1412C32.4427 97.1412 32.3606 97.1338 32.2676 97.1253C32.1768 97.1169 32.075 97.1075 31.9629 97.1075V97.5575C32.0514 97.5575 32.1335 97.5649 32.2265 97.5734C32.3174 97.5817 32.4191 97.5912 32.5312 97.5912V97.1412ZM31.9629 97.1075H22.1348V97.5575H31.9629V97.1075ZM22.1348 97.1075C19.2858 97.1075 16.9777 94.7809 16.9777 91.9004H16.5277C16.5277 95.0255 19.0333 97.5575 22.1348 97.5575V97.1075ZM16.9777 91.9004V79.6865H16.5277V91.9004H16.9777ZM16.9777 79.6865C16.9777 76.0496 17.2537 72.0509 18.572 68.5516C19.887 65.061 22.2369 62.0705 26.396 60.4279L26.2307 60.0094C21.9323 61.707 19.5019 64.8066 18.1509 68.3929C16.8032 71.9705 16.5277 76.0357 16.5277 79.6865H16.9777ZM26.3851 60.4319C26.4247 60.4186 26.5137 60.3959 26.6192 60.3693C26.7143 60.3453 26.8259 60.3174 26.8866 60.2969L26.7431 59.8704C26.7035 59.8838 26.6145 59.9064 26.5091 59.933C26.414 59.957 26.3023 59.985 26.2417 60.0054L26.3851 60.4319ZM26.8148 60.3087H121.018V59.8587H26.8148V60.3087ZM121.018 60.0837C120.958 60.3006 120.958 60.3006 120.958 60.3006C120.958 60.3006 120.958 60.3006 120.958 60.3006C120.958 60.3006 120.958 60.3006 120.958 60.3006C120.958 60.3006 120.958 60.3007 120.959 60.3007C120.959 60.3007 120.959 60.3008 120.959 60.3009C120.96 60.3011 120.961 60.3014 120.962 60.3017C120.965 60.3025 120.969 60.3036 120.974 60.305C120.984 60.3078 120.999 60.3118 121.017 60.3168C121.053 60.3268 121.101 60.3404 121.153 60.355C121.26 60.3851 121.371 60.4172 121.414 60.4319L121.558 60.0054C121.501 59.9864 121.378 59.9509 121.276 59.922C121.223 59.9071 121.174 59.8933 121.137 59.8832C121.119 59.8782 121.104 59.8741 121.094 59.8712C121.089 59.8698 121.085 59.8687 121.082 59.8679C121.081 59.8676 121.08 59.8673 121.079 59.8671C121.078 59.867 121.078 59.8669 121.078 59.8668C121.078 59.8668 121.078 59.8668 121.078 59.8668C121.078 59.8668 121.078 59.8668 121.078 59.8668C121.078 59.8668 121.078 59.8668 121.078 59.8668C121.078 59.8668 121.078 59.8668 121.018 60.0837ZM121.403 60.4277C125.579 62.0873 127.929 65.0781 129.24 68.5641C130.554 72.0591 130.822 76.0492 130.822 79.6865H131.272C131.272 76.0361 131.005 71.9792 129.661 68.4057C128.314 64.8233 125.884 61.724 121.569 60.0096L121.403 60.4277ZM130.822 79.6865V91.9004H131.272V79.6865H130.822ZM133.295 54.3817C133.295 54.9342 132.826 55.405 132.284 55.405V55.855C133.078 55.855 133.745 55.1787 133.745 54.3817H133.295ZM132.284 55.405H127.035V55.855H132.284V55.405ZM127.035 55.405C126.498 55.405 125.773 55.4919 125.086 55.6152C124.4 55.7384 123.732 55.9016 123.312 56.0607L123.471 56.4815C123.853 56.3369 124.489 56.1796 125.165 56.0581C125.841 55.9369 126.536 55.855 127.035 55.855V55.405ZM123.584 56.1545L120.742 51.4647L120.358 51.6978L123.199 56.3877L123.584 56.1545ZM120.707 51.7428L122.378 50.1233L122.065 49.8001L120.393 51.4197L120.707 51.7428ZM122.378 50.1229C122.834 49.6787 123.59 49.2366 124.404 48.9048C125.218 48.5729 126.057 48.3648 126.668 48.3648V47.9148C125.975 47.9148 125.075 48.1453 124.234 48.4882C123.393 48.8312 122.578 49.3001 122.064 49.8006L122.378 50.1229ZM126.668 48.3648H132.25V47.9148H126.668V48.3648ZM132.25 48.3648C132.822 48.3648 133.262 48.8317 133.262 49.3882H133.712C133.712 48.5951 133.082 47.9148 132.25 47.9148V48.3648ZM133.262 49.3882V54.3142H133.712V49.3882H133.262ZM133.285 54.4141L133.319 54.4815L133.722 54.2818L133.689 54.2143L133.285 54.4141Z" fill="#008CD3"/>
</svg>
