<svg width="148" height="148" viewBox="0 0 148 148" fill="none" xmlns="http://www.w3.org/2000/svg">
<path d="M141.255 100.617C141.255 98.3347 140.689 97.7689 138.361 97.7689C136.691 97.7689 135.021 97.7689 133.296 97.7689H130.884C130.615 97.7689 130.374 97.6668 130.189 97.4721C130.013 97.2865 129.91 97.0268 129.92 96.7671C130.04 93.9101 129.975 90.9418 127.758 88.7527C125.662 86.6842 123.083 86.0442 119.874 86.8233C119.614 86.8883 119.336 86.8326 119.113 86.6842C118.891 86.5358 118.742 86.2946 118.696 86.0349L118.594 85.3485C118.529 84.9032 118.464 84.4765 118.399 84.0498C117.796 80.5064 114.475 77.835 110.83 77.9741C106.943 78.1225 103.752 81.0352 103.567 84.6249C103.446 87.0645 103.437 89.5597 103.437 91.9807V92.2405C103.437 93.233 103.437 94.2348 103.419 95.2273C103.419 95.5705 103.419 95.9044 103.419 96.2476V96.7393C103.419 97.268 102.992 97.704 102.454 97.704H87.9463C87.6495 97.704 87.3619 97.5648 87.1857 97.3236C87.0002 97.0825 86.9445 96.7764 87.0187 96.4888C87.2877 95.4963 87.5753 94.4852 87.8443 93.5205C88.4472 91.4056 89.078 89.2258 89.4861 87.0645C90.7662 80.4322 90.3024 73.6608 88.1226 66.9544C85.5717 59.1162 80.943 52.4747 74.3664 47.2153C73.4945 46.5196 73.1049 45.694 73.1142 44.5531C73.1513 37.9023 73.142 31.372 73.1327 23.5339C73.1234 18.6641 69.9696 15.501 65.0905 15.501C54.0893 15.501 43.0881 15.501 32.0962 15.501C27.1707 15.501 23.989 18.6826 23.9798 23.5896V27.9585C23.9612 33.2179 23.9427 38.5516 24.0169 43.7925C24.0447 45.8332 23.1078 46.8906 22.0968 47.7347C15.2697 53.4023 10.6874 60.4705 8.47974 68.7261C8.02522 70.4421 7.70056 72.2416 7.38518 73.9762C7.23677 74.7832 7.08835 75.5995 6.93066 76.3972L6.95849 83.3727C7.05125 83.6417 7.13473 83.92 7.17184 84.2261C8.40553 95.2366 13.3681 104.512 21.9205 111.822C22.8388 112.61 23.8406 112.963 25.1671 112.963C30.1482 112.935 35.2221 112.944 40.1198 112.944H44.0621C44.4331 112.944 44.8041 112.972 45.1659 112.991L45.639 113.018C45.908 113.028 46.1491 113.148 46.3254 113.352C46.5016 113.556 46.5851 113.816 46.5573 114.085C46.1955 117.619 47.1788 120.588 49.3308 122.443C51.288 124.131 54.0058 124.697 56.7886 123.992C56.8721 123.973 56.9463 123.964 57.0298 123.964C57.2338 123.964 57.4194 124.029 57.5863 124.14C57.8182 124.307 57.9666 124.558 57.9852 124.836L58.013 125.086C58.0316 125.272 58.0501 125.457 58.0594 125.634C58.2449 128.333 59.7476 130.67 62.0666 131.904C64.3577 133.119 67.0941 133.054 69.3945 131.719C71.8434 130.299 73.1049 128.092 73.1327 125.179C73.1605 122.656 73.1513 120.077 73.1513 117.573V114.002C73.1513 113.473 73.578 113.037 74.1067 113.037H102.463C102.992 113.037 103.428 113.473 103.428 114.002V114.586C103.428 114.985 103.428 115.328 103.428 115.671C103.437 116.72 103.437 117.777 103.437 118.825C103.437 121.218 103.437 123.639 103.567 125.995C103.752 129.576 106.906 132.609 110.589 132.758C114.466 132.915 117.833 130.235 118.408 126.533C118.473 126.116 118.538 125.699 118.612 125.281L118.696 124.743C118.779 124.242 119.234 123.881 119.744 123.936L119.967 123.955C120.226 123.973 120.366 123.983 120.523 124.02C122.861 124.511 125.106 124.075 126.84 122.786C128.565 121.506 129.632 119.512 129.846 117.155C129.91 116.451 129.938 115.755 129.975 115.013L130.031 113.844C130.059 113.334 130.486 112.935 130.996 112.935H133.454C135.337 112.954 137.062 112.954 138.815 112.926C140.633 112.898 141.255 112.267 141.255 110.44C141.255 107.972 141.255 105.505 141.255 103.038V100.598V100.617ZM32.5971 19.2855C43.2365 19.2855 53.876 19.2855 64.5247 19.2855C68.0495 19.2855 69.3574 20.6027 69.3574 24.1461C69.3574 28.0605 69.3574 31.9657 69.3574 35.8801V41.9744C69.3574 42.2898 69.1997 42.5866 68.9493 42.7628C68.6988 42.9391 68.3649 42.9855 68.0681 42.8834C64.905 41.761 64.6174 41.3807 64.6174 38.3568V35.1659C64.6174 33.1159 64.6174 31.001 64.6174 28.9232C64.5989 26.0106 62.6324 24.0441 59.7198 24.0348C52.1785 24.0162 44.665 24.0162 37.3741 24.0348C34.4801 24.0348 32.5136 26.0198 32.5043 28.951V30.9175C32.4672 33.524 32.4487 36.2233 32.5321 38.8948C32.56 39.7111 32.6249 41.8909 30.1204 42.4938C29.9998 42.5217 29.8421 42.5959 29.6381 42.6979C29.4711 42.7814 29.3319 42.8463 29.1743 42.9112C29.0537 42.9669 28.9238 42.9855 28.7939 42.9855C28.6177 42.9855 28.4415 42.9391 28.2838 42.837C28.0148 42.6793 27.8478 42.3918 27.8293 42.0764L27.7922 41.5848C27.7643 41.2509 27.7458 40.9448 27.7458 40.6387C27.7458 35.138 27.7458 29.6374 27.7458 24.1461C27.7458 20.6584 29.1093 19.2948 32.6063 19.2948L32.5971 19.2855ZM60.7309 28.849V38.7C60.7309 38.9968 60.5917 39.2751 60.3598 39.4606C60.1279 39.6461 59.8125 39.7111 59.525 39.6276C52.2249 37.7167 44.832 37.726 37.5597 39.6461C37.4762 39.6647 37.3927 39.674 37.3092 39.674C37.0959 39.674 36.8918 39.5997 36.7248 39.4699C36.4837 39.2844 36.3445 39.0061 36.3445 38.7093V28.849C36.3445 28.3203 36.7805 27.8843 37.3092 27.8843H59.7662C60.2949 27.8843 60.7309 28.3203 60.7309 28.849ZM46.5666 108.13C46.5666 108.659 46.1306 109.095 45.6019 109.095H41.4741C41.3442 109.095 41.2236 109.058 41.1031 109.011H39.7117C39.1551 109.011 38.7006 108.557 38.7006 108V102.787C38.7006 102.231 39.1551 101.776 39.7117 101.776H41.4648C41.5483 101.758 41.6318 101.739 41.7153 101.739H45.6019C46.1306 101.739 46.5666 102.175 46.5666 102.704V108.139V108.13ZM58.013 116.46C58.013 117.675 57.5956 118.705 56.8257 119.437C56.1486 120.077 55.2302 120.43 54.2285 120.43H54.0337C51.8538 120.328 50.4995 118.742 50.481 116.284C50.4717 113.714 50.481 111.145 50.481 108.575V105.375C50.481 104.206 50.481 103.038 50.481 101.869V101.73C50.481 99.2623 50.4717 96.7114 50.4995 94.2069C50.5181 92.7321 51.2138 91.452 52.3733 90.7656C53.4957 90.107 54.8314 90.107 56.0465 90.7656C57.3359 91.4613 58.013 92.6671 58.0223 94.2533C58.0594 103.121 58.0594 109.976 58.0223 116.46H58.013ZM69.3482 124.316C69.3482 126.033 68.9029 127.303 68.031 128.092C67.4095 128.648 66.621 128.936 65.6842 128.936C65.5265 128.936 65.3502 128.936 65.1833 128.908C63.4765 128.741 62.2985 127.684 61.9738 126.005C61.8347 125.318 61.8254 124.623 61.8254 123.964C61.8254 119.66 61.8254 115.347 61.8254 111.043V86.61C61.8254 82.2596 64.4319 81.7494 65.5543 81.7309C66.5561 81.7216 67.4188 82.037 68.0774 82.6863C68.9307 83.5304 69.3667 84.829 69.3667 86.5543C69.3667 99.1417 69.3667 111.729 69.3667 124.316H69.3482ZM73.1327 96.7949C73.1327 95.6076 73.1327 94.4388 73.1327 93.2701C73.1327 90.5059 73.1513 87.9828 73.1142 85.4041C73.0771 82.6121 71.8526 80.4786 69.478 79.0594C67.1869 77.6866 64.4412 77.5845 62.1222 78.7904C59.7662 80.0148 58.2356 82.3802 58.0408 85.1073C58.0316 85.2835 58.0037 85.4505 57.9852 85.6267L57.9481 85.9328C57.9203 86.2018 57.7718 86.443 57.5492 86.61C57.3266 86.7677 57.039 86.8233 56.7793 86.7677C53.8852 86.1091 51.1303 86.6935 49.2287 88.3817C47.1417 90.2276 46.1955 93.1866 46.5573 96.7114C46.5851 96.9804 46.4924 97.2587 46.3161 97.4535C46.1399 97.6576 45.8709 97.7689 45.6019 97.7689H39.5262C35.3335 97.7689 35.2963 97.806 35.2963 101.971V108.204C35.2963 108.733 34.8604 109.169 34.3317 109.169H30.3245C28.627 109.169 26.9851 109.169 25.3155 109.15C24.6662 109.15 24.156 108.696 23.8221 108.399C16.2622 101.804 11.9304 93.5112 10.9471 83.7623C9.03629 64.8487 21.0115 47.7625 39.4148 43.1431C58.8757 38.264 78.7354 49.46 84.6441 68.6333C87.566 78.104 86.8332 87.4634 82.4735 96.4517C82.2417 96.934 81.5552 97.7039 80.7204 97.7225C79.0322 97.7689 77.3718 97.7689 75.7485 97.7596H74.0789C73.5501 97.7596 73.1142 97.3236 73.1142 96.7949H73.1327ZM103.335 108.149C103.335 108.677 102.899 109.113 102.37 109.113H74.1994C73.6707 109.113 73.2348 108.677 73.2348 108.149V102.685C73.2348 102.156 73.6707 101.72 74.1994 101.72H102.37C102.899 101.72 103.335 102.156 103.335 102.685V108.149ZM114.744 124.827C114.744 126.988 113.65 128.5 111.832 128.862C111.535 128.917 111.238 128.954 110.951 128.954C109.216 128.954 107.852 127.851 107.407 126.079C107.268 125.55 107.203 124.938 107.203 124.27C107.194 110.366 107.194 98.0101 107.203 86.5079C107.203 85.7566 107.296 85.0609 107.472 84.4209C107.917 82.8069 109.439 81.6845 111.108 81.7309C112.889 81.8051 114.42 83.1779 114.689 84.9218C114.754 85.3763 114.754 85.8123 114.754 86.2389V86.5358C114.754 91.5355 114.754 96.5352 114.754 101.535V111.173C114.754 115.727 114.754 120.281 114.754 124.836L114.744 124.827ZM126.144 116.284C126.144 117.591 125.727 118.686 124.939 119.437C124.261 120.087 123.371 120.43 122.351 120.43H122.202C119.995 120.356 118.612 118.732 118.603 116.191C118.603 113.658 118.603 111.135 118.603 108.603V102.212C118.603 99.6519 118.603 97.0825 118.603 94.513C118.612 92.0549 120.069 90.3389 122.23 90.2461C123.223 90.209 124.159 90.5522 124.864 91.2294C125.69 92.0178 126.144 93.168 126.144 94.4759C126.172 102.008 126.172 109.345 126.144 116.284ZM137.656 108.084C137.656 108.631 137.211 109.067 136.673 109.067H135.485C135.355 109.132 135.216 109.169 135.059 109.169H130.968C130.439 109.169 130.003 108.733 130.003 108.204V102.648C130.003 102.119 130.439 101.683 130.968 101.683H134.91C134.975 101.683 135.031 101.693 135.096 101.702H136.673C137.22 101.702 137.656 102.147 137.656 102.685V108.084Z" fill="#008CD3" stroke="#008CD3" stroke-linejoin="round"/>
</svg>
