<svg width="26" height="26" viewBox="0 0 26 26" fill="none" xmlns="http://www.w3.org/2000/svg">
<rect y="0.522461" width="26" height="25" rx="5" fill="#0A1E3C"/>
<path d="M2 4.02246H24C24.8284 4.02246 25.5 4.69403 25.5 5.52246V20.5225C25.5 23.0077 23.4853 25.0225 21 25.0225H5C2.51472 25.0225 0.5 23.0077 0.5 20.5225V5.52246L0.507812 5.36914C0.584609 4.61274 1.22334 4.02246 2 4.02246Z" fill="#FFFEFE" stroke="#0A1E3C"/>
<rect x="4" y="7.52246" width="3" height="3" fill="#0A1E3C"/>
<rect x="4" y="12.5225" width="3" height="3" fill="#0A1E3C"/>
<rect x="4" y="17.5225" width="3" height="3" fill="#0A1E3C"/>
<rect x="9" y="7.52246" width="3" height="3" fill="#0A1E3C"/>
<rect x="9" y="12.5225" width="3" height="3" fill="#0A1E3C"/>
<rect x="9" y="17.5225" width="3" height="3" fill="#0A1E3C"/>
<rect x="14" y="7.52246" width="3" height="3" fill="#0A1E3C"/>
<rect x="14" y="12.5225" width="3" height="3" fill="#0A1E3C"/>
<rect x="14" y="17.5225" width="3" height="3" fill="#0A1E3C"/>
<rect x="19" y="7.52246" width="3" height="3" fill="#0A1E3C"/>
<rect x="19" y="12.5225" width="3" height="3" fill="#0A1E3C"/>
<rect x="19" y="17.5225" width="3" height="3" fill="#0A1E3C"/>
</svg>
