<svg width="419" height="195" viewBox="0 0 419 195" fill="none" xmlns="http://www.w3.org/2000/svg">
<path d="M355.057 0H44.1014C41.6824 0 39.3034 0.401008 37.1144 1.15585C34.9153 1.91069 32.8961 3.02722 31.1869 4.4504L5.34775 25.9397C3.63847 27.3629 2.29903 29.0456 1.38941 30.8698C0.479798 32.694 0 34.6675 0 36.6883V141.815C0 156.503 7.15698 169.799 18.7321 179.424C30.3072 189.048 46.3005 195 63.963 195H374.899C377.318 195 379.697 194.599 381.886 193.844C384.075 193.089 386.104 191.973 387.813 190.55L413.652 169.06C415.362 167.637 416.701 165.954 417.611 164.13C418.53 162.306 419 160.332 419 158.312V53.1847C419 38.4968 411.843 25.2006 400.268 15.5764C388.693 5.95222 372.7 0 355.037 0H355.047L355.057 0Z" fill="#69C0FF"/>
</svg>
