<svg width="127" height="41" viewBox="0 0 127 41" fill="none" xmlns="http://www.w3.org/2000/svg">
<path d="M32.6125 34.7651H29.4435C29.136 34.7651 28.8819 34.5125 28.8819 34.2067V12.9889C28.8819 12.6831 28.6278 12.4305 28.3203 12.4305H12.6492C12.3417 12.4305 12.0876 12.6831 12.0876 12.9889V34.2067C12.0876 34.5125 11.8336 34.7651 11.526 34.7651H8.37043C8.06289 34.7651 7.80884 34.5125 7.80884 34.2067V13.8131V8.73463C7.80884 8.42886 8.06289 8.17627 8.37043 8.17627H13.4782H27.9593C28.5476 8.17627 29.1226 8.41557 29.5371 8.8277L32.5055 11.7791C32.92 12.1912 33.1607 12.7628 33.1607 13.3478V34.2067C33.1607 34.5125 32.92 34.7651 32.6125 34.7651Z" fill="white"/>
<path d="M58.1381 12.4305H42.4537C42.1461 12.4305 41.8921 12.6831 41.8921 12.9889V29.9525C41.8921 30.2583 42.1461 30.5109 42.4537 30.5109H58.1381C58.4457 30.5109 58.6997 30.2583 58.6997 29.9525V12.9889C58.6863 12.6831 58.4457 12.4305 58.1381 12.4305ZM57.7637 34.7651H42.8548C39.9666 34.7651 37.6133 32.4386 37.6133 29.5537V13.3478C37.6133 12.7628 37.854 12.1912 38.2685 11.7791L41.2369 8.8277C41.6514 8.41557 42.2264 8.17627 42.8147 8.17627H57.7236C60.6118 8.17627 62.9651 10.5028 62.9651 13.3877V29.5936C62.9651 30.1785 62.7245 30.7502 62.31 31.1623L59.3415 34.1137C58.927 34.5391 58.3521 34.7651 57.7637 34.7651Z" fill="white"/>
<path d="M87.5815 8.17627H72.6726C72.0843 8.17627 71.5093 8.41557 71.0948 8.8277L68.1264 11.7791C67.7119 12.1912 67.4712 12.7628 67.4712 13.3478V34.2067C67.4712 34.5125 67.7252 34.7651 68.0328 34.7651H71.2018C71.5093 34.7651 71.7634 34.5125 71.7634 34.2067V12.9889C71.7634 12.6831 72.0174 12.4305 72.325 12.4305H87.9827C88.2902 12.4305 88.5443 12.6831 88.5443 12.9889V22.521C88.5443 22.8267 88.2902 23.0793 87.9827 23.0793H76.9514C76.3631 23.0793 75.7881 23.3186 75.3736 23.7307L72.6993 26.3896C72.3517 26.7353 72.5924 27.3335 73.0871 27.3335H87.6083C88.1966 27.3335 88.7716 27.0942 89.1861 26.6821L92.1545 23.7307C92.569 23.3186 92.8097 22.747 92.8097 22.162V13.401C92.823 10.5161 90.4697 8.17627 87.5815 8.17627Z" fill="white"/>
<path d="M96.2997 34.2066L117.186 13.4407L114.15 10.4229L90.6838 33.7546C90.3362 34.1002 90.5768 34.6985 91.085 34.6985H95.1097C95.5509 34.6985 95.9788 34.5256 96.2997 34.2066Z" fill="white"/>
<path d="M112.92 23.7441H108.869C108.28 23.7441 107.705 23.9834 107.291 24.3956L104.59 27.0677C104.242 27.4134 104.483 28.0116 104.991 28.0116H107.425H111.797H113.094C114.324 28.0116 115.327 29.0087 115.327 30.2318V34.1271C115.327 34.4329 115.581 34.6854 115.889 34.6854H119.071C119.378 34.6854 119.632 34.4329 119.632 34.1271V30.4046C119.632 26.7354 116.624 23.7441 112.92 23.7441Z" fill="white"/>
<path d="M118.87 11.646L115.915 8.57499C115.501 8.14957 114.939 7.89697 114.351 7.89697H96.8212C96.5136 7.89697 96.2729 8.14957 96.2729 8.46863V11.7391C96.2729 12.0581 96.527 12.3107 96.8212 12.3107H114.712C115.019 12.3107 115.26 12.5633 115.26 12.8824V34.8979C115.26 35.217 115.514 35.4696 115.808 35.4696H118.951C119.258 35.4696 119.499 35.217 119.499 34.8979V13.2812C119.512 12.6697 119.285 12.0847 118.87 11.646Z" fill="white"/>
</svg>
