<svg width="144" height="47" viewBox="0 0 144 47" fill="none" xmlns="http://www.w3.org/2000/svg">
<path d="M36.9778 39.8525H33.3846C33.0359 39.8525 32.7479 39.5629 32.7479 39.2124V14.8894C32.7479 14.5389 32.4598 14.2494 32.1111 14.2494H14.3423C13.9936 14.2494 13.7056 14.5389 13.7056 14.8894V39.2124C13.7056 39.5629 13.4175 39.8525 13.0688 39.8525H9.49077C9.14206 39.8525 8.854 39.5629 8.854 39.2124V15.8343V10.0126C8.854 9.66213 9.14206 9.37257 9.49077 9.37257H15.2823H31.7018C32.3689 9.37257 33.0208 9.64689 33.4908 10.1193L36.8565 13.5026C37.3265 13.975 37.5994 14.6304 37.5994 15.3009V39.2124C37.5994 39.5629 37.3265 39.8525 36.9778 39.8525Z" fill="#0069D2"/>
<path d="M65.9205 14.2494H48.1365C47.7878 14.2494 47.4997 14.5389 47.4997 14.8894V34.3356C47.4997 34.6861 47.7878 34.9757 48.1365 34.9757H65.9205C66.2692 34.9757 66.5572 34.6861 66.5572 34.3356V14.8894C66.5421 14.5389 66.2692 14.2494 65.9205 14.2494ZM65.496 39.8525H48.5913C45.3165 39.8525 42.6482 37.1855 42.6482 33.8784V15.3009C42.6482 14.6304 42.9211 13.975 43.3911 13.5026L46.7568 10.1193C47.2268 9.64689 47.8788 9.37257 48.5459 9.37257H65.4505C68.7253 9.37257 71.3936 12.0396 71.3936 15.3466V33.9241C71.3936 34.5947 71.1207 35.25 70.6507 35.7224L67.285 39.1057C66.815 39.5934 66.163 39.8525 65.496 39.8525Z" fill="#0069D2"/>
<path d="M99.3052 9.37257H82.4006C81.7335 9.37257 81.0816 9.64689 80.6116 10.1193L77.2458 13.5026C76.7758 13.975 76.5029 14.6304 76.5029 15.3009V39.2124C76.5029 39.5629 76.791 39.8525 77.1397 39.8525H80.7329C81.0816 39.8525 81.3696 39.5629 81.3696 39.2124V14.8894C81.3696 14.5389 81.6577 14.2494 82.0064 14.2494H99.76C100.109 14.2494 100.397 14.5389 100.397 14.8894V25.8165C100.397 26.167 100.109 26.4566 99.76 26.4566H87.2521C86.5851 26.4566 85.9331 26.7309 85.4631 27.2033L82.4309 30.2513C82.0367 30.6475 82.3096 31.3333 82.8706 31.3333H99.3355C100.003 31.3333 100.655 31.059 101.125 30.5866L104.49 27.2033C104.96 26.7309 105.233 26.0756 105.233 25.405V15.3619C105.248 12.0548 102.58 9.37257 99.3052 9.37257Z" fill="#0069D2"/>
<path d="M109.251 39.3038L132.826 15.6057L129.4 12.1615L102.914 38.7704C102.519 39.1667 102.792 39.8525 103.353 39.8525H107.902C108.417 39.8525 108.902 39.6543 109.251 39.3038Z" fill="#0069D2"/>
<g opacity="0.5">
<mask id="mask0_751_521" style="mask-type:luminance" maskUnits="userSpaceOnUse" x="114" y="26" width="23" height="15">
<path d="M136.965 26.1365H114.921V40.0049H136.965V26.1365Z" fill="white"/>
</mask>
<g mask="url(#mask0_751_521)">
<path d="M128.02 27.3557H121.137L116.286 32.2325H126.747H128.217C129.612 32.2325 130.749 33.3755 130.749 34.7776V39.2276C130.749 39.5781 131.037 39.8677 131.386 39.8677H134.979C135.328 39.8677 135.616 39.5781 135.616 39.2276V34.9909C135.601 30.7695 132.205 27.3557 128.02 27.3557Z" fill="#0069D2"/>
</g>
</g>
<path d="M121.137 27.3557H117.135C116.468 27.3557 115.831 27.6148 115.346 28.1025L112.298 31.1505C111.904 31.5467 112.177 32.2325 112.738 32.2325H115.482H116.27L121.137 27.3557Z" fill="#0069D2"/>
<path d="M134.858 13.5026L131.492 10.1193C131.022 9.64689 130.37 9.37257 129.703 9.37257H109.66C109.312 9.37257 109.023 9.66213 109.023 10.0126V13.6245C109.023 13.975 109.312 14.2646 109.66 14.2646H130.113C130.461 14.2646 130.749 14.5542 130.749 14.9047V39.2276C130.749 39.5781 131.037 39.8677 131.386 39.8677H134.979C135.328 39.8677 135.616 39.5781 135.616 39.2276V15.3009C135.601 14.6304 135.328 13.9903 134.858 13.5026Z" fill="#0069D2"/>
</svg>
