<svg width="90" height="90" viewBox="0 0 90 90" fill="none" xmlns="http://www.w3.org/2000/svg">
<circle cx="45" cy="45" r="45" transform="matrix(-1 0 0 1 90 0)" fill="#9ED6F4"/>
<path d="M45.6922 28.4493C45.6909 28.7215 45.744 28.9913 45.8484 29.2427C45.9527 29.4941 46.1063 29.7222 46.2999 29.9135L61.4109 45.0244L46.2999 60.1353C45.934 60.5281 45.7347 61.0475 45.7442 61.5843C45.7537 62.1211 45.9711 62.6332 46.3507 63.0128C46.7303 63.3924 47.2424 63.6098 47.7792 63.6193C48.316 63.6288 48.8354 63.4295 49.2282 63.0636L65.8033 46.4885C66.1912 46.1 66.4092 45.5734 66.4092 45.0244C66.4092 44.4753 66.1912 43.9487 65.8033 43.5602L49.2282 26.9852C48.8397 26.5972 48.3131 26.3793 47.7641 26.3793C47.215 26.3793 46.6884 26.5972 46.2999 26.9852C46.1063 27.1765 45.9527 27.4045 45.8484 27.656C45.744 27.9074 45.6909 28.1771 45.6922 28.4493Z" fill="white"/>
<path d="M23.5903 45.0238C23.5975 45.5711 23.818 46.0939 24.2051 46.4809C24.5921 46.868 25.1149 47.0885 25.6622 47.0957L64.3373 47.0957C64.8868 47.0957 65.4138 46.8774 65.8023 46.4889C66.1909 46.1003 66.4092 45.5733 66.4092 45.0238C66.4092 44.4743 66.1909 43.9473 65.8023 43.5588C65.4138 43.1702 64.8868 42.9519 64.3373 42.9519L25.6622 42.9519C25.1149 42.9591 24.5921 43.1797 24.2051 43.5667C23.818 43.9537 23.5975 44.4765 23.5903 45.0238Z" fill="white"/>
</svg>
