<svg width="163" height="35" viewBox="0 0 163 35" fill="none" xmlns="http://www.w3.org/2000/svg">
<path d="M31.896 11.104C31.896 13.12 31.352 14.944 30.264 16.576C29.176 18.208 27.592 19.408 25.512 20.176L32.856 34H20.952L15.096 21.952H11.16V34H0.552V0.975999H20.76C23.128 0.975999 25.144 1.44 26.808 2.368C28.504 3.264 29.768 4.496 30.6 6.064C31.464 7.6 31.896 9.28 31.896 11.104ZM21.096 11.536C21.096 10.672 20.808 9.952 20.232 9.376C19.656 8.8 18.952 8.512 18.12 8.512H11.16V14.608H18.12C18.952 14.608 19.656 14.32 20.232 13.744C20.808 13.136 21.096 12.4 21.096 11.536ZM53.6756 0.399998C56.8436 0.399998 59.6916 0.879998 62.2196 1.84C64.7476 2.8 66.7476 4.224 68.2196 6.112C69.7236 7.968 70.4756 10.24 70.4756 12.928H60.3476C60.3476 11.552 59.7396 10.448 58.5236 9.616C57.3076 8.752 55.8356 8.32 54.1076 8.32C51.6116 8.32 49.7236 8.992 48.4436 10.336C47.1636 11.648 46.5236 13.52 46.5236 15.952V19.024C46.5236 21.456 47.1636 23.344 48.4436 24.688C49.7236 26 51.6116 26.656 54.1076 26.656C55.8356 26.656 57.3076 26.256 58.5236 25.456C59.7396 24.624 60.3476 23.568 60.3476 22.288H52.8596V15.568H70.4756V34H65.0036L63.9476 30.736C60.9396 33.296 57.0036 34.576 52.1396 34.576C46.6676 34.576 42.5556 33.152 39.8036 30.304C37.0516 27.424 35.6756 23.152 35.6756 17.488C35.6756 11.888 37.2276 7.648 40.3316 4.768C43.4676 1.856 47.9156 0.399998 53.6756 0.399998ZM76.8968 34V24.448H87.0728V34H76.8968ZM124.849 11.104C124.849 13.12 124.305 14.944 123.217 16.576C122.129 18.208 120.545 19.408 118.465 20.176L125.809 34H113.905L108.049 21.952H104.113V34H93.5051V0.975999H113.713C116.081 0.975999 118.097 1.44 119.761 2.368C121.457 3.264 122.721 4.496 123.553 6.064C124.417 7.6 124.849 9.28 124.849 11.104ZM114.049 11.536C114.049 10.672 113.761 9.952 113.185 9.376C112.609 8.8 111.905 8.512 111.073 8.512H104.113V14.608H111.073C111.905 14.608 112.609 14.32 113.185 13.744C113.761 13.136 114.049 12.4 114.049 11.536ZM162.948 20.704C162.948 25.216 161.524 28.656 158.676 31.024C155.828 33.392 151.78 34.576 146.532 34.576C141.284 34.576 137.22 33.392 134.34 31.024C131.492 28.656 130.068 25.216 130.068 20.704V0.975999H140.676V20.56C140.676 22.416 141.172 23.904 142.164 25.024C143.156 26.112 144.596 26.656 146.484 26.656C148.372 26.656 149.812 26.096 150.804 24.976C151.828 23.856 152.34 22.384 152.34 20.56V0.975999H162.948V20.704Z" fill="black"/>
</svg>
