<svg width="48" height="48" viewBox="0 0 48 48" fill="none" xmlns="http://www.w3.org/2000/svg">
<circle cx="23.2599" cy="23.8717" r="20.4234" stroke="white" stroke-width="2"/>
<path d="M23.6535 24.2728C27.3239 24.2728 30.2994 21.2974 30.2994 17.6269C30.2994 13.9564 27.3239 10.981 23.6535 10.981C19.983 10.981 17.0075 13.9564 17.0075 17.6269C17.0075 21.2974 19.983 24.2728 23.6535 24.2728ZM23.6535 14.3573C25.4592 14.3573 26.923 15.8211 26.923 17.6269C26.923 19.4327 25.4592 20.8965 23.6535 20.8965C21.8477 20.8965 20.3839 19.4327 20.3839 17.6269C20.3839 15.8215 21.8477 14.3573 23.6535 14.3573ZM31.314 25.0836C30.9386 24.3297 29.8997 23.7027 28.5183 24.7911C26.6517 26.262 23.653 26.262 23.653 26.262C23.653 26.262 20.6544 26.262 18.7878 24.7911C17.4068 23.7027 16.3675 24.3297 15.9921 25.0836C15.338 26.3978 16.0769 27.0328 17.7449 28.1035C19.1694 29.0179 21.1268 29.3595 22.3911 29.4875L21.336 30.5426C19.8499 32.0287 18.4152 33.4635 17.4198 34.4588C16.8245 35.0537 16.8245 36.0188 17.4198 36.6141L17.5992 36.7935C18.1945 37.3888 19.1592 37.3884 19.7545 36.7935L23.6707 32.8773C25.1569 34.3635 26.5916 35.7982 27.587 36.7935C28.1818 37.3888 29.1469 37.3888 29.7422 36.7935L29.9216 36.6141C30.5169 36.0188 30.5165 35.0541 29.9216 34.4588L26.0054 30.5426L24.9468 29.4844C26.2119 29.3541 28.1485 29.0109 29.5612 28.1039C31.2292 27.0331 31.9681 26.3978 31.314 25.0836Z" fill="white"/>
</svg>
