<svg width="44" height="44" viewBox="0 0 44 44" fill="none" xmlns="http://www.w3.org/2000/svg">
<circle cx="22.9041" cy="21.0959" r="20.0959" stroke="white" stroke-width="2"/>
<path d="M29.8454 13.5966C29.8454 13.5966 31.7969 12.8357 31.6343 14.6837C31.58 15.4447 31.0922 18.108 30.7127 20.9888L29.4117 29.5225C29.4117 29.5225 29.3033 30.7726 28.3275 30.99C27.3517 31.2074 25.8881 30.2291 25.617 30.0116C25.4002 29.8486 21.5514 27.4026 20.1962 26.2068C19.8167 25.8807 19.383 25.2284 20.2503 24.4675L25.9423 19.0321C26.5928 18.3798 27.2433 16.8579 24.5329 18.7059L16.9436 23.8696C16.9436 23.8696 16.0763 24.4131 14.45 23.924L10.9264 22.8369C10.9264 22.8369 9.62538 22.0216 11.848 21.2062C17.2689 18.6515 23.9366 16.0425 29.8454 13.5966Z" fill="white"/>
</svg>
