<svg width="47" height="46" viewBox="0 0 47 46" fill="none" xmlns="http://www.w3.org/2000/svg">
<circle cx="23.7437" cy="22.4253" r="19.125" stroke="white" stroke-width="2"/>
<path d="M34.9559 17.9697C34.7378 16.2476 33.743 15.1675 31.9773 15.008C29.9556 14.8253 25.5791 14.7202 23.5491 14.7202C19.3968 14.7202 17.5412 14.8216 15.5776 15.0249C13.7064 15.2182 12.8872 16.0498 12.5652 17.7664C12.3397 18.9694 12.2437 20.0961 12.2437 22.7589C12.2437 25.1508 12.3566 26.6551 12.5314 27.9208C12.7718 29.6589 13.9648 30.6355 15.7132 30.7811C17.7473 30.9505 21.8221 31.035 23.8368 31.035C25.7835 31.035 30.1646 30.9336 32.1125 30.7134C33.856 30.5164 34.685 29.5851 34.9559 27.8701C34.9559 27.8701 35.2437 25.9914 35.2437 22.742C35.2437 20.8918 35.1084 19.171 34.9559 17.9697ZM21.2981 26.1101V19.4983L27.5938 22.7704L21.2981 26.1101Z" fill="white"/>
</svg>
