<svg width="43" height="42" viewBox="0 0 43 42" fill="none" xmlns="http://www.w3.org/2000/svg">
<circle cx="21.7437" cy="21" r="20" stroke="white" stroke-width="2"/>
<circle cx="31.6436" cy="13.4995" r="1.5" fill="white"/>
<path d="M25.5193 14.9995H22.0436C17.9014 14.9995 14.5436 18.3574 14.5436 22.4995V28.4721C14.5436 29.3157 15.2274 29.9995 16.071 29.9995C16.9146 29.9995 17.5984 29.3157 17.5984 28.4721V27.5595C17.5984 26.2119 18.6909 25.1195 20.0384 25.1195H21.2738C22.6169 25.1195 23.8531 25.8521 24.4979 27.0303L25.7105 29.246C25.9648 29.7106 26.4523 29.9995 26.982 29.9995C28.109 29.9995 28.8048 28.7697 28.2245 27.8037L27.8498 27.18C27.241 26.1666 27.9685 24.8304 28.5741 23.8152C28.9765 23.1406 29.1778 22.061 29.1778 20.6218V19.4973C29.1778 18.6427 29.1047 17.9681 28.9766 17.4509C28.8485 16.9336 28.629 16.4838 28.318 16.079C27.9887 15.6967 27.623 15.4269 27.1839 15.247C26.7448 15.0896 26.196 14.9995 25.5193 14.9995ZM25.0254 21.8137C25.0254 21.8137 25.0253 21.8138 25.0253 21.8138H19.3526C18.3838 21.8138 17.5984 21.0284 17.5984 20.0596C17.5984 19.0907 18.3838 18.3054 19.3526 18.3054H25.0254C25.446 18.3054 25.7387 18.3952 25.8851 18.5527C26.0314 18.7101 26.1229 19.0024 26.1229 19.4298V20.6892C26.1229 21.1389 26.0314 21.4312 25.8851 21.5886C25.7387 21.746 25.4462 21.8135 25.0255 21.8135C25.0255 21.8135 25.0254 21.8136 25.0254 21.8137Z" fill="white"/>
</svg>
