<svg width="291" height="450" viewBox="0 0 291 450" fill="none" xmlns="http://www.w3.org/2000/svg">
<path d="M260.287 70.8769H242.14C239.483 70.8769 236.926 71.9273 235.071 73.778L222.99 85.7825C221.385 87.3331 222.538 90.0341 224.744 90.0341H235.673H255.274H261.089C266.604 90.0341 271.116 94.5358 271.116 100.038V117.545C271.116 118.945 272.219 120.046 273.622 120.046H287.859C289.263 120.046 290.366 118.945 290.366 117.545V100.838C290.366 84.282 276.881 70.8769 260.287 70.8769Z" fill="white"/>
<path d="M287.408 16.3062L274.023 2.95112C272.118 1.0504 269.612 0 266.955 0H187.497C186.093 0 184.99 1.10042 184.99 2.50095V16.7063C184.99 18.1069 186.093 19.2073 187.497 19.2073H268.609C270.013 19.2073 271.116 20.3077 271.116 21.7082V117.545C271.116 118.945 272.219 120.046 273.622 120.046H287.86C289.263 120.046 290.366 118.945 290.366 117.545V23.3589C290.366 20.7079 289.313 18.1569 287.408 16.3062Z" fill="white"/>
<path d="M185.842 117.895L279.387 24.5593L265.802 11.0042L160.727 115.794C159.173 117.395 160.275 120.046 162.481 120.046H180.529C182.534 120.046 184.439 119.295 185.842 117.895Z" fill="white"/>
<path d="M183.204 419.097V449.878H191.327L203.224 427.856H204.126V449.878H210.198V419.097H201.747L190.096 440.627H189.194V419.097H183.204ZM153.092 449.878H159.574V436.943H165.646L172.456 449.878H179.594L171.307 434.078L179.184 419.097H172.046L165.564 431.131H159.574V419.097H153.092V449.878ZM119.863 419.097V449.878H127.986L139.883 427.856H140.785V449.878H146.857V419.097H138.406L126.755 440.627H125.852V419.097H119.863ZM116.417 419.097H90.7359V424.745H100.335V449.878H106.817V424.745H116.417V419.097ZM63.5779 449.878H70.0597V436.943H76.1313L82.9413 449.878H90.0795L81.7926 434.078L89.6692 419.097H82.531L76.0492 431.131H70.0597V419.097H63.5779V449.878ZM46.758 433.177H40.03V424.745H46.758C50.6963 424.745 52.1732 426.219 52.1732 429.002C52.1732 431.622 50.6963 433.177 46.758 433.177ZM47.6605 419.097H33.5482V449.878H40.03V438.826H47.6605C54.7167 438.826 58.8191 435.06 58.8191 428.839C58.8191 422.781 54.7167 419.097 47.6605 419.097ZM14.349 425.237H15.8258L19.1898 435.961H11.067L14.349 425.237ZM23.4563 449.878H30.0202L20.0923 419.097H10.1645L0.318726 449.878H6.63645L9.17995 441.528H20.8308L23.4563 449.878Z" fill="white"/>
<path d="M230.464 380.293H223.982C219.716 380.293 218.157 379.147 218.157 376.282C218.157 373.416 219.798 372.27 223.982 372.27H230.464V380.293ZM222.423 366.622C215.613 366.622 211.593 370.306 211.593 376.282C211.593 380.375 213.562 383.322 217.008 384.877L211.511 397.403H218.321L223.326 385.942H230.546V397.403H237.028V366.622H222.423ZM179.758 366.622V397.403H187.881L199.778 375.381H200.68V397.403H206.752V366.622H198.301L186.65 388.152H185.748V366.622H179.758ZM176.312 366.622H150.631V372.27H160.231V397.403H166.713V372.27H176.312V366.622ZM120.355 366.622V397.403H128.478L140.375 375.381H141.278V397.403H147.349V366.622H138.898L127.247 388.152H126.345V366.622H120.355ZM103.782 391.918H96.3152V384.223H103.864C107.146 384.223 108.786 385.532 108.786 388.152C108.786 390.772 106.981 391.918 103.782 391.918ZM103.617 378.82H96.3152V371.943H103.535C106.407 371.943 107.884 373.089 107.884 375.381C107.884 377.673 106.489 378.82 103.617 378.82ZM111.33 381.848V380.948C113.299 379.966 114.612 377.51 114.612 374.726C114.612 370.306 111.248 366.54 104.438 366.54H89.9154V397.321H104.766C112.068 397.321 115.432 393.555 115.432 388.398C115.432 385.451 113.463 382.749 111.33 381.848ZM77.1979 375.299C77.1979 377.182 76.1313 378.82 72.7673 378.82H68.2547V384.468H72.7673C76.5415 384.468 78.1825 385.942 78.1825 388.316C78.1825 390.772 75.8852 392.327 72.275 392.327C68.4188 392.327 66.2035 390.854 65.465 388.152H58.655C59.3935 394.292 63.742 398.058 72.275 398.058C80.3158 398.058 84.9105 393.801 84.9105 388.48C84.9105 384.632 83.1054 382.422 80.6439 381.521V380.621C82.2849 379.72 83.7618 377.837 83.7618 374.563C83.7618 369.651 79.4953 366.049 72.193 366.049C65.1368 366.049 60.4601 369.487 59.8037 375.299H66.4496C66.9419 372.843 68.9931 371.779 72.1109 371.779C74.9826 371.779 77.1979 372.925 77.1979 375.299ZM41.7531 372.762H43.23L46.5939 383.486H38.4712L41.7531 372.762ZM50.9425 397.403H57.5064L47.5785 366.622H37.6507L27.8049 397.403H34.1226L36.6661 389.053H48.399L50.9425 397.403ZM16.3181 380.702H9.59021V372.27H16.3181C20.2565 372.27 21.7333 373.744 21.7333 376.527C21.8154 379.147 20.3385 380.702 16.3181 380.702ZM17.3027 366.622H3.19043V397.403H9.67223V386.351H17.3027C24.3589 386.351 28.4613 382.585 28.4613 376.364C28.4613 370.306 24.2768 366.622 17.3027 366.622Z" fill="white"/>
<path d="M127.329 335.104C126.755 338.051 124.458 339.77 121.176 339.77C115.678 339.77 112.971 335.267 112.971 329.537C112.971 323.806 115.596 319.304 121.176 319.304C124.211 319.304 126.263 320.614 127.001 323.07H133.729C132.662 317.421 127.986 313.492 121.176 313.492C111.822 313.492 106.407 320.041 106.407 329.455C106.407 338.87 111.74 345.419 121.176 345.419C128.396 345.419 133.073 341.162 134.057 335.022H127.329V335.104ZM74.5723 314.146V344.927H82.6951L94.5921 322.906H95.4946V344.927H101.566V314.146H93.1152L81.4644 335.677H80.5618V314.146H74.5723ZM55.5371 336.004V322.251H55.9474C60.5421 322.251 63.5779 324.298 63.5779 329.128C63.5779 333.794 60.5421 336.004 55.9474 336.004H55.5371ZM48.9733 336.004C44.3786 336.004 41.3428 333.876 41.3428 329.128C41.3428 324.298 44.3786 322.251 48.9733 322.251H49.3835V336.004H48.9733ZM55.5371 316.766V313.164H49.3835V316.766H48.9733C40.6044 316.766 34.861 320.941 34.861 329.128C34.861 337.478 40.5223 341.489 48.9733 341.489H49.3835V345.582H55.5371V341.489H55.9474C64.2342 341.489 69.9776 337.478 69.9776 329.128C69.9776 320.941 64.2342 316.766 55.9474 316.766H55.5371ZM16.7283 339.77C10.9849 339.77 8.27736 335.267 8.27736 329.537C8.27736 323.806 10.9849 319.304 16.7283 319.304C22.5537 319.304 25.1793 323.806 25.1793 329.537C25.1793 335.267 22.5537 339.77 16.7283 339.77ZM16.7283 313.573C6.96458 313.573 1.7135 320.45 1.7135 329.537C1.7135 338.624 6.96458 345.501 16.7283 345.501C26.4921 345.501 31.7432 338.624 31.7432 329.537C31.8252 320.45 26.4921 313.573 16.7283 313.573Z" fill="white"/>
<path d="M273.539 253.485C273.293 254.958 272.227 256.186 270.093 256.186C267.96 256.186 266.811 254.958 266.647 253.485H261.888C262.217 257.578 265.17 260.116 270.093 260.116C275.016 260.116 277.888 257.578 278.298 253.485H273.539ZM256.719 261.671V292.452H264.842L276.739 270.431H277.642V292.452H283.713V261.671H275.262L263.611 283.202H262.709V261.671H256.719ZM229.151 292.452C236.371 292.452 240.638 288.605 240.638 282.219C240.638 275.916 236.371 272.068 229.151 272.068H222.669V261.671H216.188V292.452H229.151ZM228.085 286.804H222.669V277.717H228.085C232.351 277.717 233.91 279.354 233.91 282.219C233.992 285.248 232.433 286.804 228.085 286.804ZM244.002 292.452H250.484V261.671H244.002V292.452ZM203.47 261.671V273.705H189.768V261.671H183.286V292.452H189.768V279.6H203.47V292.534H209.952V261.671H203.47ZM180.004 261.671H154.323V267.32H163.923V292.452H170.405V267.32H180.004V261.671ZM127.083 292.452H133.565V279.518H139.637L146.447 292.452H153.585L145.298 276.653L153.175 261.671H146.036L139.555 273.705H133.565V261.671H127.083V292.452ZM105.669 286.722V279.436H118.468V273.787H105.669V267.32H122.078V261.59H99.2689V292.371H122.571V286.64H105.669V286.722ZM79.2491 287.295C73.5057 287.295 70.7981 282.792 70.7981 277.062C70.7981 271.331 73.5057 266.829 79.2491 266.829C85.0745 266.829 87.7001 271.331 87.7001 277.062C87.7001 282.792 85.0745 287.295 79.2491 287.295ZM79.2491 261.098C69.4854 261.098 64.2343 267.975 64.2343 277.062C64.2343 286.149 69.4854 293.025 79.2491 293.025C89.0129 293.025 94.2639 286.149 94.2639 277.062C94.346 267.975 89.0949 261.098 79.2491 261.098ZM48.8092 275.752H42.0813V267.32H48.8092C52.7475 267.32 54.2244 268.794 54.2244 271.577C54.3065 274.197 52.8296 275.752 48.8092 275.752ZM49.7118 261.671H35.5995V292.452H42.0813V281.401H49.7118C56.7679 281.401 60.8703 277.635 60.8703 271.413C60.8703 265.355 56.7679 261.671 49.7118 261.671ZM3.19043 261.671V292.452H9.67223V267.402H22.9641V292.452H29.4459V261.671H3.19043Z" fill="white"/>
</svg>
