<svg width="791" height="135" viewBox="0 0 791 135" fill="none" xmlns="http://www.w3.org/2000/svg">
<path d="M528.646 79.6104H498.107L476.582 101.127H522.996H529.52C535.709 101.127 540.754 106.17 540.754 112.356V131.989C540.754 133.536 542.032 134.813 543.579 134.813H559.521C561.068 134.813 562.346 133.536 562.346 131.989V113.162C562.279 94.6046 547.211 79.6104 528.646 79.6104Z" fill="white"/>
<path d="M124.712 134.679H108.77C107.222 134.679 105.944 133.401 105.944 131.855V24.5421C105.944 22.9956 104.666 21.718 103.119 21.718H24.3504C22.8033 21.718 21.5252 22.9956 21.5252 24.5421V131.855C21.5252 133.401 20.2472 134.679 18.7 134.679H2.82519C1.27806 134.679 0 133.401 0 131.855V28.7108V3.02574C0 1.47925 1.27806 0.201721 2.82519 0.201721H28.5209H101.37C104.33 0.201721 107.222 1.41202 109.308 3.49641L124.241 18.4234C126.326 20.5078 127.537 23.399 127.537 26.3575V131.855C127.537 133.468 126.259 134.679 124.712 134.679Z" fill="white"/>
<path d="M253.123 21.718H174.287C172.74 21.718 171.462 22.9956 171.462 24.5421V110.338C171.462 111.885 172.74 113.162 174.287 113.162H253.19C254.737 113.162 256.015 111.885 256.015 110.338V24.5421C255.948 22.9956 254.67 21.718 253.123 21.718ZM251.307 134.679H176.305C161.775 134.679 149.937 122.912 149.937 108.321V26.3575C149.937 23.399 151.147 20.5078 153.233 18.4234L168.166 3.49641C170.251 1.41202 173.143 0.201721 176.103 0.201721H251.105C265.635 0.201721 277.473 11.9685 277.473 26.5592V108.523C277.473 111.481 276.263 114.373 274.177 116.457L259.244 131.384C257.159 133.536 254.267 134.679 251.307 134.679Z" fill="white"/>
<path d="M401.311 0.201721H326.309C323.349 0.201721 320.457 1.41202 318.371 3.49641L303.438 18.4234C301.353 20.5078 300.142 23.399 300.142 26.3575V131.855C300.142 133.401 301.42 134.679 302.967 134.679H318.909C320.457 134.679 321.735 133.401 321.735 131.855V24.5421C321.735 22.9956 323.013 21.718 324.56 21.718H403.463C405.01 21.718 406.288 22.9956 406.288 24.5421V72.7521C406.288 74.2986 405.01 75.5761 403.463 75.5761H347.968C345.009 75.5761 342.116 76.7864 340.031 78.8708L326.578 92.3185C324.829 94.0667 326.04 97.0924 328.528 97.0924H401.58C404.539 97.0924 407.432 95.8821 409.517 93.7977L424.45 78.8708C426.535 76.7864 427.746 73.8951 427.746 70.9366V26.6265C427.612 12.0357 415.84 0.201721 401.311 0.201721Z" fill="white"/>
<path d="M445.437 132.258L550.037 27.7023L534.834 12.5064L417.32 129.905C415.571 131.653 416.782 134.679 419.271 134.679H439.451C441.738 134.679 443.89 133.805 445.437 132.258Z" fill="white"/>
<path d="M498.107 79.6104H480.349C477.389 79.6104 474.564 80.7535 472.411 82.9051L458.891 96.3528C457.142 98.101 458.353 101.127 460.841 101.127H473.017H476.515L498.107 79.6104Z" fill="white"/>
<path d="M558.983 18.4906L544.05 3.56364C541.965 1.47925 539.072 0.268951 536.112 0.268951H447.254C445.707 0.268951 444.428 1.54649 444.428 3.09297V19.0285C444.428 20.575 445.707 21.8525 447.254 21.8525H537.996C539.543 21.8525 540.821 23.1301 540.821 24.6765V131.989C540.821 133.536 542.099 134.813 543.646 134.813H559.588C561.135 134.813 562.414 133.536 562.414 131.989V26.3575C562.279 23.399 561.135 20.575 558.983 18.4906Z" fill="white"/>
<path d="M615.958 5.64804V26.7609H611.518V9.54788H602.37V26.7609H597.93V5.64804H615.958Z" fill="white"/>
<path d="M637.483 12.3719C637.483 16.6079 634.657 19.2302 629.814 19.2302H624.567V26.8282H620.128V5.64804H629.747C634.657 5.64804 637.483 8.13587 637.483 12.3719ZM632.976 12.4391C632.976 10.5565 631.967 9.54788 629.276 9.54788H624.635V15.3304H629.276C631.967 15.3304 632.976 14.2546 632.976 12.4391Z" fill="white"/>
<path d="M660.353 16.2045C660.353 22.3904 656.721 27.1644 650.062 27.1644C643.402 27.1644 639.77 22.4577 639.77 16.2045C639.77 10.0185 643.402 5.24461 650.062 5.24461C656.721 5.24461 660.353 9.95131 660.353 16.2045ZM655.846 16.2045C655.846 12.3047 654.03 9.21169 650.062 9.21169C646.093 9.21169 644.277 12.3047 644.277 16.2045C644.277 20.1043 646.093 23.1973 650.062 23.1973C654.03 23.1973 655.846 20.1043 655.846 16.2045Z" fill="white"/>
<path d="M679.659 22.7939V26.7609H663.717V5.64804H679.322V9.61511H668.089V14.0529H676.833V17.8855H668.089V22.8611H679.659V22.7939Z" fill="white"/>
<path d="M682.888 5.64804H687.327V13.9184H691.43L695.87 5.64804H700.78L695.332 15.9355L700.982 26.8282H696.072L691.363 17.9527H687.192V26.8282H682.753V5.64804H682.888Z" fill="white"/>
<path d="M719.077 9.48063H712.485V26.7609H708.045V9.48063H701.453V5.5808H719.009V9.48063H719.077Z" fill="white"/>
<path d="M739.593 5.64804V26.7609H735.153V17.8855H725.803V26.7609H721.364V5.64804H725.803V13.8511H735.153V5.64804H739.593Z" fill="white"/>
<path d="M743.898 26.7609V5.64804H748.338V12.7753H752.777C757.688 12.7753 760.647 15.3976 760.647 19.7009C760.647 24.0714 757.755 26.6937 752.777 26.6937H743.898V26.7609ZM756.006 19.7681C756.006 17.8182 754.93 16.6752 752.037 16.6752H748.338V22.8611H752.037C754.997 22.8611 756.006 21.7853 756.006 19.7681ZM767.307 5.64804V26.7609H762.867V5.64804H767.307Z" fill="white"/>
<path d="M775.715 5.64804V20.4405H776.32L784.258 5.64804H790.043V26.7609H785.872V11.6995H785.267L777.128 26.7609H771.544V5.64804H775.715ZM786.41 0C786.141 2.82402 784.191 4.57222 780.827 4.57222C777.464 4.57222 775.446 2.82402 775.244 0H778.473C778.607 1.00858 779.347 1.81544 780.827 1.81544C782.24 1.81544 783.047 1.00858 783.182 0H786.41Z" fill="white"/>
<path d="M617.572 52.1771C617.572 58.363 613.939 63.137 607.28 63.137C600.621 63.137 596.988 58.4303 596.988 52.1771C596.988 45.9911 600.621 41.2172 607.28 41.2172C613.939 41.2172 617.572 45.9911 617.572 52.1771ZM613.065 52.1771C613.065 48.2773 611.249 45.1843 607.28 45.1843C603.311 45.1843 601.495 48.2773 601.495 52.1771C601.495 56.0769 603.311 59.1699 607.28 59.1699C611.249 59.1699 613.065 56.0769 613.065 52.1771Z" fill="white"/>
<path d="M634.119 43.4361C639.77 43.4361 643.739 46.3273 643.739 51.9081C643.739 57.6234 639.77 60.3802 634.119 60.3802H633.85V63.137H629.68V60.3802H629.411C623.626 60.3802 619.792 57.6234 619.792 51.9081C619.792 46.3273 623.76 43.4361 629.411 43.4361H629.68V40.9483H633.85V43.4361H634.119ZM629.613 56.6148V47.2014H629.344C626.182 47.2014 624.097 48.6135 624.097 51.9081C624.097 55.1356 626.182 56.6148 629.344 56.6148H629.613ZM634.119 56.6148C637.281 56.6148 639.299 55.1356 639.299 51.9081C639.299 48.6135 637.214 47.2014 634.119 47.2014H633.85V56.6148H634.119Z" fill="white"/>
<path d="M651.003 41.6207V56.4131H651.609L659.546 41.6207H665.331V62.7335H661.161V47.6721H660.555L652.416 62.7335H646.833V41.6207H651.003Z" fill="white"/>
<path d="M687.529 56.0097C686.856 60.1785 683.627 63.137 678.717 63.137C672.259 63.137 668.627 58.632 668.627 52.1771C668.627 45.7222 672.327 41.2172 678.717 41.2172C683.426 41.2172 686.587 43.9068 687.327 47.7394H682.686C682.215 46.0584 680.802 45.1171 678.717 45.1171C674.95 45.1171 673.134 48.21 673.134 52.1099C673.134 56.0097 674.95 59.1027 678.717 59.1027C681.004 59.1027 682.551 57.8924 682.955 55.8752H687.529V56.0097Z" fill="white"/>
<path d="M615.285 84.3171C615.285 88.5531 612.46 91.1754 607.617 91.1754H602.37V98.7734H597.93V77.6605H607.549C612.46 77.5932 615.285 80.0811 615.285 84.3171ZM610.778 84.3843C610.778 82.5017 609.769 81.4931 607.078 81.4931H602.437V87.2756H607.078C609.769 87.2756 610.778 86.1998 610.778 84.3843Z" fill="white"/>
<path d="M628.94 92.9909H621.003L619.254 98.7062H614.881L621.608 77.5933H628.402L635.196 98.7062H630.756L628.94 92.9909ZM622.146 89.1583H627.729L625.442 81.8293H624.433L622.146 89.1583Z" fill="white"/>
<path d="M645.218 81.1569C643.133 81.1569 641.72 81.8965 641.384 83.5775H636.81C637.213 79.5432 640.442 77.1898 645.285 77.1898C650.263 77.1898 653.223 79.6776 653.223 83.0396C653.223 85.3257 652.147 86.6032 651.07 87.2084V87.8135C652.752 88.4187 654.03 89.8979 654.03 92.5874C654.03 96.2183 650.869 99.1096 645.42 99.1096C639.635 99.1096 636.608 96.5545 636.137 92.3185H640.779C641.249 94.2012 642.797 95.2097 645.42 95.2097C647.909 95.2097 649.456 94.1339 649.456 92.453C649.456 90.8392 648.312 89.8307 645.756 89.8307H642.662V85.9981H645.756C648.043 85.9981 648.783 84.9222 648.783 83.5775C648.649 81.9638 647.102 81.1569 645.218 81.1569Z" fill="white"/>
<path d="M674.815 92.5874C674.815 96.0838 672.528 98.7062 667.551 98.7062H657.393V77.5933H667.281C671.99 77.5933 674.21 80.1483 674.21 83.1741C674.21 85.124 673.335 86.7377 671.99 87.4101V88.0152C673.537 88.6204 674.815 90.503 674.815 92.5874ZM669.703 83.5775C669.703 82.031 668.694 81.2241 666.743 81.2241H661.833V85.9308H666.811C668.694 85.9308 669.703 85.1912 669.703 83.5775ZM670.308 92.3185C670.308 90.5703 669.232 89.629 666.945 89.629H661.766V94.9408H666.878C669.098 94.9408 670.308 94.1339 670.308 92.3185Z" fill="white"/>
<path d="M682.282 77.5933V92.3857H682.887L690.825 77.5933H696.61V98.7062H692.439V83.6447H691.834L683.694 98.7062H678.111V77.5933H682.282Z" fill="white"/>
<path d="M716.521 81.4931H709.928V98.7734H705.489V81.4931H698.897V77.5933H716.453V81.4931H716.521Z" fill="white"/>
<path d="M722.978 77.5933V92.3857H723.583L731.521 77.5933H737.306V98.7062H733.135V83.6447H732.53L724.391 98.7062H718.807V77.5933H722.978Z" fill="white"/>
<path d="M758.024 77.5933V98.7062H753.584V90.8392H748.674L745.243 98.7062H740.602L744.369 90.0996C742.014 89.091 740.669 87.0066 740.669 84.1826C740.669 80.0811 743.427 77.526 748.068 77.526H758.024V77.5933ZM753.584 81.4931H749.145C746.252 81.4931 745.176 82.3 745.176 84.2499C745.176 86.1998 746.252 87.0067 749.145 87.0067H753.584V81.4931Z" fill="white"/>
<path d="M610.105 128.963H602.168L600.419 134.679H596.047L602.773 113.566H609.567L616.361 134.679H611.921L610.105 128.963ZM603.311 125.131H608.894L606.607 117.802H605.598L603.311 125.131Z" fill="white"/>
<path d="M636.07 120.29C636.07 124.526 633.245 127.148 628.402 127.148H623.155V134.679H618.783V113.566H628.402C633.245 113.566 636.07 116.054 636.07 120.29ZM631.563 120.357C631.563 118.474 630.554 117.466 627.864 117.466H623.222V123.248H627.864C630.554 123.248 631.563 122.172 631.563 120.357Z" fill="white"/>
<path d="M639.366 113.566H643.806V121.836H647.909L652.349 113.566H657.259L651.81 123.853L657.461 134.746H652.55L647.842 125.87H643.671V134.679H639.232V113.566H639.366Z" fill="white"/>
<path d="M675.555 117.466H668.963V134.679H664.524V117.398H657.932V113.499H675.488V117.466H675.555Z" fill="white"/>
<path d="M682.013 113.566V128.358H682.618L690.556 113.566H696.341V134.679H692.17V119.617H691.565L683.426 134.679H677.843V113.566H682.013Z" fill="white"/>
<path d="M700.646 113.566H705.085V121.836H709.188L713.628 113.566H718.539L713.09 123.853L718.74 134.746H713.83L709.121 125.87H704.951V134.679H700.511V113.566H700.646Z" fill="white"/>
<path d="M725.4 113.566V128.358H726.005L733.943 113.566H739.727V134.679H735.557V119.617H734.952L726.812 134.679H721.229V113.566H725.4Z" fill="white"/>
</svg>
